<?xml version="1.0" encoding="utf-8" standalone="yes"?>
<svg  xmlns:svg="http://www.w3.org/2000/svg" xmlns="http://www.w3.org/2000/svg"   width="1000" height="1000" id="SvgEmbro_NoID" version="1.1"   viewBox="-600 -500 500 1000">
  <g transform="scale(1,-1)">
    <polyline id="needle_6" stroke="brown" fill="none" points="65 -33,65 -27,68 -38,59 -31,70 -31,61 -38,65 -27,65 -33,42 -38,42 -32,45 -43,36 -36,47 -36,38 -43,42 -32,42 -38,38 -24,38 -18,41 -28,32 -22,43 -22,34 -28,38 -18,38 -24,23 -23,23 -17,26 -27,18 -21,29 -21,20 -27,23 -17,23 -23,17 -40,17 -34,20 -45,11 -39,23 -38,14 -45,17 -34,17 -40,7 -31,7 -26,11 -36,2 -30,13 -30,4 -36,7 -26,8 -31,-3 -23,-3 -18,1 -28,-8 -22,3 -22,-6 -28,-3 -18,-3 -23,-4 -35,-4 -29,-1 -39,-9 -33,2 -33,-7 -39,-4 -29,-4 -35,1 -45,1 -39,5 -49,-4 -43,7 -43,-2 -49,1 -39,1 -45,-12 -43,-12 -37,-8 -47,-17 -41,-6 -41,-15 -47,-12 -37,-12 -43,-28 -41,-28 -35,-25 -45,-34 -39,-23 -39,-32 -45,-28 -35,-28 -41,-28 -30,-28 -24,-25 -35,-33 -28,-22 -28,-31 -35,-28 -24,-28 -30,-43 -33,-43 -27,-39 -37,-48 -31,-37 -31,-46 -37,-43 -27,-42 -33,-64 -38,-64 -33,-61 -43,-70 -37,-59 -37,-68 -43,-64 -33,-64 -38,-53 -48,-53 -42,-50 -52,-58 -46,-47 -46,-56 -52,-53 -42,-53 -48,-59 -64,-59 -58,-56 -68,-65 -62,-54 -62,-63 -68,-59 -58,-59 -64,-48 -68,-48 -62,-45 -73,-53 -66,-42 -66,-51 -73,-48 -62,-48 -68,-32 -77,-32 -72,-29 -82,-38 -76,-27 -76,-36 -82,-32 -72,-32 -77,-50 -82,-50 -76,-47 -86,-55 -80,-44 -80,-53 -86,-50 -76,-50 -82,-73 -83,-73 -77,-69 -87,-78 -81,-67 -81,-76 -87,-73 -77,-72 -83,-73 -73,-73 -67,-69 -78,-78 -71,-67 -71,-76 -77,-73 -67,-72 -73,-75 -63,-75 -57,-71 -68,-80 -61,-69 -61,-78 -67,-75 -57,-74 -63,-78 -53,-78 -48,-75 -58,-84 -52,-73 -52,-81 -58,-78 -48,-78 -53,-86 -44,-86 -38,-82 -49,-91 -42,-80 -42,-89 -49,-86 -38,-85 -44,-86 -33,-86 -27,-82 -37,-91 -31,-80 -31,-89 -37,-86 -27,-85 -33,-102 -37,-102 -32,-99 -42,-108 -36,-96 -36,-105 -42,-102 -32,-102 -37,-110 -32,-110 -26,-107 -36,-116 -30,-104 -30,-113 -36,-110 -26,-110 -32,-112 -40,-112 -34,-109 -44,-117 -38,-106 -38,-115 -44,-112 -34,-112 -40,-119 -32,-119 -27,-116 -37,-124 -31,-113 -31,-122 -37,-119 -27,-119 -32,-122 -40,-122 -34,-119 -45,-128 -38,-117 -38,-126 -45,-122 -34,-122 -40,-115 -47,-115 -41,-112 -52,-121 -45,-110 -45,-119 -52,-115 -41,-115 -47,-123 -51,-123 -46,-120 -56,-129 -50,-118 -50,-127 -56,-123 -46,-123 -51,-116 -59,-116 -54,-113 -64,-122 -58,-111 -58,-120 -64,-116 -54,-116 -59,-103 -56,-103 -50,-100 -61,-108 -54,-97 -54,-106 -60,-103 -50,-103 -56,-91 -56,-91 -50,-88 -60,-97 -54,-85 -54,-94 -60,-91 -50,-91 -56,-95 -66,-95 -60,-91 -70,-100 -64,-89 -64,-98 -70,-95 -60,-95 -66,-86 -75,-86 -69,-83 -79,-92 -73,-81 -73,-90 -79,-86 -69,-86 -75,-98 -84,-98 -78,-95 -89,-104 -82,-93 -82,-102 -88,-98 -78,-98 -84,-104 -74,-104 -68,-101 -79,-110 -73,-98 -72,-107 -79,-104 -68,-104 -74,-113 -69,-113 -63,-110 -74,-119 -67,-108 -67,-117 -74,-113 -63,-113 -69,-115 -82,-115 -76,-112 -86,-121 -80,-109 -80,-118 -86,-115 -76,-115 -82,-126 -74,-126 -68,-122 -79,-131 -72,-120 -72,-129 -79,-126 -68,-125 -74,-137 -82,-137 -76,-134 -87,-142 -80,-131 -80,-140 -87,-137 -76,-137 -82,-142 -73,-142 -67,-139 -77,-148 -71,-136 -71,-145 -77,-142 -67,-142 -73,-157 -77,-157 -72,-154 -82,-162 -76,-151 -76,-160 -82,-157 -72,-157 -77,-161 -69,-161 -63,-158 -73,-167 -67,-156 -67,-165 -73,-161 -63,-161 -69,-153 -62,-153 -56,-150 -67,-159 -60,-148 -60,-157 -66,-153 -56,-153 -62,-140 -55,-140 -49,-137 -60,-146 -54,-135 -54,-143 -60,-140 -49,-140 -55,-135 -46,-135 -40,-132 -51,-141 -44,-130 -44,-139 -51,-135 -40,-135 -46,-130 -37,-130 -31,-126 -42,-135 -36,-124 -35,-133 -42,-130 -31,-129 -37,-140 -36,-140 -31,-137 -41,-145 -35,-134 -35,-143 -41,-140 -31,-140 -36,-146 -35,-146 -29,-143 -40,-152 -33,-141 -33,-150 -40,-146 -29,-146 -35,-150 -45,-150 -39,-147 -49,-156 -43,-145 -43,-154 -49,-150 -39,-150 -45,-158 -38,-158 -32,-155 -43,-164 -36,-153 -36,-162 -43,-158 -32,-158 -38,-172 -38,-172 -33,-169 -43,-178 -37,-167 -37,-175 -43,-172 -33,-172 -38,-164 -48,-164 -43,-161 -53,-169 -47,-158 -47,-167 -53,-164 -43,-164 -48,-173 -55,-173 -50,-170 -60,-179 -54,-167 -54,-176 -60,-173 -50,-173 -55,-185 -58,-185 -52,-181 -63,-190 -56,-179 -56,-188 -63,-185 -52,-184 -58,-180 -69,-180 -63,-177 -73,-186 -67,-175 -67,-184 -73,-180 -63,-180 -69,-182 -79,-182 -73,-179 -84,-188 -77,-177 -77,-186 -83,-182 -73,-182 -79,-199 -78,-199 -73,-196 -83,-205 -77,-194 -77,-203 -83,-199 -73,-199 -78,-205 -68,-205 -63,-202 -73,-210 -67,-199 -67,-208 -73,-205 -63,-205 -68,-197 -63,-197 -57,-194 -67,-203 -61,-192 -61,-201 -67,-197 -57,-197 -63,-193 -51,-193 -45,-190 -55,-199 -49,-188 -49,-197 -55,-193 -45,-193 -51,-195 -38,-195 -33,-192 -43,-201 -37,-189 -37,-198 -43,-195 -33,-195 -38,-212 -37,-212 -32,-209 -42,-218 -36,-207 -36,-216 -42,-212 -32,-212 -37,-212 -48,-212 -42,-209 -52,-218 -46,-207 -46,-216 -52,-212 -42,-212 -48,-208 -57,-208 -52,-205 -62,-214 -56,-203 -56,-212 -62,-208 -52,-208 -57,-219 -62,-219 -56,-216 -67,-225 -61,-214 -60,-223 -67,-219 -56,-219 -62,-219 -77,-219 -71,-216 -82,-225 -76,-213 -75,-222 -82,-219 -71,-219 -77,-233 -76,-233 -70,-229 -81,-238 -75,-227 -74,-236 -81,-233 -70,-232 -76,-230 -64,-230 -58,-227 -68,-235 -62,-224 -62,-233 -68,-230 -58,-230 -64,-230 -51,-230 -45,-227 -56,-235 -49,-224 -49,-233 -56,-230 -45,-230 -51,-232 -39,-232 -34,-228 -44,-237 -38,-226 -38,-235 -44,-232 -34,-231 -39,-241 -34,-241 -28,-238 -39,-247 -32,-236 -32,-245 -38,-241 -28,-241 -34,-243 -45,-243 -39,-240 -50,-248 -44,-237 -44,-246 -50,-243 -39,-243 -45,-240 -58,-240 -52,-237 -63,-246 -57,-235 -56,-244 -63,-240 -52,-240 -58,-242 -68,-242 -63,-239 -73,-248 -67,-237 -67,-246 -73,-242 -63,-242 -68,-247 -79,-247 -73,-244 -83,-252 -77,-241 -77,-250 -83,-247 -73,-247 -79,-256 -71,-256 -65,-252 -75,-261 -69,-250 -69,-259 -75,-256 -65,-255 -71,-262 -79,-262 -74,-259 -84,-268 -78,-256 -78,-265 -84,-262 -74,-262 -79,-274 -79,-274 -73,-270 -83,-279 -77,-268 -77,-277 -83,-274 -73,-273 -79,-271 -65,-271 -59,-268 -70,-277 -63,-266 -63,-275 -70,-271 -59,-271 -65,-265 -53,-265 -48,-262 -58,-271 -52,-259 -52,-268 -58,-265 -48,-265 -53,-257 -46,-257 -40,-254 -51,-263 -45,-251 -45,-260 -51,-257 -40,-257 -46,-254 -36,-254 -30,-251 -40,-260 -34,-249 -34,-258 -40,-254 -30,-254 -36,-266 -33,-266 -27,-262 -38,-271 -31,-260 -31,-269 -37,-266 -27,-265 -33,-270 -41,-270 -35,-267 -46,-276 -39,-265 -39,-274 -46,-270 -35,-270 -41,-278 -33,-278 -28,-275 -38,-284 -32,-272 -32,-281 -38,-278 -28,-278 -33,-286 -40,-286 -34,-283 -44,-291 -38,-280 -38,-289 -44,-286 -34,-286 -40,-284 -54,-284 -48,-281 -59,-289 -52,-278 -52,-287 -59,-284 -48,-284 -54,-283 -63,-283 -58,-280 -68,-289 -62,-278 -62,-287 -68,-283 -58,-283 -63,-283 -73,-283 -68,-280 -78,-289 -72,-278 -72,-287 -78,-283 -68,-283 -73,-292 -68,-292 -62,-289 -73,-298 -66,-287 -66,-296 -72,-292 -62,-292 -68,-302 -73,-302 -68,-299 -78,-307 -72,-296 -72,-305 -78,-302 -68,-302 -73,-314 -74,-314 -68,-311 -79,-320 -73,-308 -72,-317 -79,-314 -68,-314 -74,-329 -74,-329 -68,-325 -79,-334 -73,-323 -72,-332 -79,-329 -68,-328 -74,-322 -64,-322 -58,-319 -69,-328 -62,-316 -62,-325 -68,-322 -58,-322 -64,-316 -55,-316 -49,-313 -59,-322 -53,-310 -53,-319 -59,-316 -49,-316 -55,-301 -53,-301 -47,-298 -58,-307 -52,-296 -52,-305 -58,-301 -47,-301 -53,-301 -40,-301 -34,-298 -45,-306 -39,-295 -38,-304 -45,-301 -34,-301 -40,-312 -41,-312 -36,-309 -46,-318 -40,-307 -40,-316 -46,-312 -36,-312 -41,-322 -39,-322 -34,-319 -44,-328 -38,-317 -38,-326 -44,-322 -34,-322 -39,-324 -28,-324 -22,-320 -32,-329 -26,-318 -26,-327 -32,-324 -22,-323 -28,-334 -34,-334 -28,-331 -39,-340 -32,-329 -32,-338 -39,-334 -28,-334 -34,-334 -47,-334 -41,-331 -52,-340 -45,-329 -45,-338 -52,-334 -41,-334 -47,-335 -61,-335 -55,-332 -66,-340 -59,-329 -59,-338 -65,-335 -55,-335 -61,-346 -70,-346 -64,-342 -75,-351 -68,-340 -68,-349 -74,-346 -64,-345 -70,-352 -57,-352 -51,-349 -62,-358 -55,-347 -55,-356 -61,-352 -51,-352 -57,-348 -47,-348 -42,-345 -52,-353 -46,-342 -46,-351 -52,-348 -42,-348 -47,-345 -37,-345 -32,-342 -42,-351 -36,-340 -36,-349 -42,-345 -32,-345 -37,-351 -26,-351 -20,-347 -31,-356 -24,-345 -24,-354 -30,-351 -20,-351 -26,-357 -40,-357 -34,-353 -44,-362 -38,-351 -38,-360 -44,-357 -34,-356 -40,-366 -29,-366 -24,-363 -34,-372 -28,-361 -28,-370 -34,-366 -24,-366 -29,-378 -31,-378 -25,-375 -35,-384 -29,-372 -29,-381 -35,-378 -25,-378 -31,-383 -40,-383 -34,-380 -44,-389 -38,-377 -38,-386 -44,-383 -34,-383 -40,-374 -47,-374 -42,-371 -52,-380 -46,-369 -46,-378 -52,-374 -42,-374 -47,-367 -52,-367 -47,-364 -57,-373 -51,-361 -51,-370 -57,-367 -47,-367 -52,-371 -63,-371 -58,-368 -68,-376 -62,-365 -62,-374 -68,-371 -58,-371 -63,-364 -71,-364 -65,-361 -76,-370 -69,-359 -69,-368 -75,-364 -65,-364 -71,-371 -63,-379 -58,-379 -52,-376 -63,-384 -56,-373 -56,-382 -62,-379 -52,-379 -58,-382 -69,-382 -64,-378 -74,-387 -68,-376 -68,-385 -74,-382 -64,-381 -69,-392 -72,-392 -66,-389 -77,-397 -70,-386 -70,-395 -77,-392 -66,-392 -72,-390 -61,-390 -55,-387 -66,-396 -59,-385 -59,-394 -66,-390 -55,-390 -61,-387 -51,-387 -46,-384 -56,-393 -50,-382 -50,-391 -56,-387 -46,-387 -51,-392 -42,-392 -36,-389 -46,-398 -40,-386 -40,-395 -46,-392 -36,-392 -42,-400 -36,-400 -31,-397 -41,-406 -35,-394 -35,-403 -41,-400 -31,-400 -36,-409 -35,-409 -29,-406 -40,-415 -33,-404 -33,-413 -40,-409 -29,-409 -35,-414 -46,-414 -40,-410 -50,-419 -44,-408 -44,-417 -50,-414 -40,-413 -46,-409 -55,-409 -50,-406 -60,-415 -54,-403 -54,-412 -60,-409 -50,-409 -55,-409 -67,-409 -61,-406 -72,-415 -65,-404 -65,-413 -72,-409 -61,-409 -67,-422 -62,-422 -57,-419 -67,-427 -61,-416 -61,-425 -67,-422 -57,-422 -62,-430 -55,-430 -49,-426 -60,-435 -54,-424 -53,-433 -60,-430 -49,-429 -55,-428 -45,-428 -39,-425 -50,-434 -43,-422 -43,-431 -49,-428 -39,-428 -45,-438 -39,-438 -33,-434 -44,-443 -37,-432 -37,-441 -44,-438 -33,-437 -39,-441 -49,-441 -44,-438 -54,-447 -48,-436 -48,-445 -54,-441 -44,-441 -49,-440 -60,-440 -54,-437 -65,-446 -58,-435 -58,-443 -65,-440 -54,-440 -60,-441 -71,-441 -65,-438 -76,-446 -69,-435 -69,-444 -75,-441 -65,-441 -71,-451 -63,-451 -57,-448 -68,-457 -61,-446 -61,-455 -67,-451 -57,-451 -63,-458 -53,-458 -47,-455 -57,-463 -51,-452 -51,-461 -57,-458 -47,-458 -53,-453 -42,-453 -36,-450 -46,-458 -40,-447 -40,-456 -46,-453 -36,-453 -42,-466 -42,-466 -36,-463 -47,-471 -40,-460 -40,-469 -47,-466 -36,-466 -42,-467 -53,-467 -48,-464 -58,-473 -52,-462 -52,-471 -58,-467 -48,-467 -53,-474 -62,-474 -56,-471 -67,-479 -60,-468 -60,-477 -67,-474 -56,-474 -62,-481 -54,-481 -48,-478 -58,-487 -52,-476 -52,-484 -58,-481 -48,-481 -54,-481 -43,-481 -38,-478 -48,-487 -42,-476 -42,-484 -48,-481 -38,-481 -43,-492 -45,-492 -40,-489 -50,-497 -44,-486 -44,-495 -50,-492 -40,-492 -45,-493 -55,-493 -49,-490 -59,-499 -53,-488 -53,-497 -59,-493 -49,-493 -55,-493 -65,-493 -60,-490 -70,-499 -64,-488 -64,-497 -70,-493 -60,-493 -65,-506 -66,-506 -61,-503 -71,-511 -65,-500 -65,-509 -71,-506 -61,-506 -66,-506 -56,-506 -50,-503 -61,-512 -55,-501 -55,-510 -61,-506 -50,-506 -56,-517 -49,-517 -44,-514 -54,-523 -48,-512 -48,-521 -54,-517 -44,-517 -49,-523 -60,-523 -55,-519 -65,-528 -59,-517 -59,-526 -65,-523 -55,-523 -60,-520 -74,-520 -68,-517 -79,-525 -72,-514 -72,-523 -78,-520 -68,-520 -74,-523 -60,-534 -65,-534 -59,-530 -70,-539 -63,-528 -63,-537 -70,-534 -59,-533 -65,-534 -52,-534 -46,-531 -57,-540 -50,-529 -50,-538 -57,-534 -46,-534 -52,-534 -65,-544 -73,-544 -68,-541 -78,-549 -72,-538 -72,-547 -78,-544 -68,-544 -73,-543 -60,-543 -55,-540 -65,-549 -59,-538 -59,-547 -65,-543 -55,-543 -60,-556 -60,-556 -54,-552 -65,-561 -58,-550 -58,-559 -64,-556 -54,-555 -60,-567 -66,-567 -60,-564 -70,-573 -64,-562 -64,-571 -70,-567 -60,-567 -66,-574 -69,-573 -56,-582 -57,-583 -68,-582 -57,-570 -55,-559 -53,-547 -51,-561 -53,-556 -58,-561 -53,-574 -56,-574 -69,-579 -71,-588 -70,-596 -70,-597 -63,-589 -59,-600 -63,-601 -53,-591 -50,-601 -53,-599 -44,-587 -42,-574 -39,-562 -37,-563 -30,-569 -29,-568 -19,-569 -29,-563 -30,-563 -36,-576 -39,-577 -30,-582 -28,-585 -33,-591 -32,-595 -35,-601 -29,-606 -23,-599 -33,-611 -36,-598 -32,-597 -35,-593 -32,-586 -33,-583 -27,-579 -30,-575 -39,-587 -42,-599 -44,-602 -54,-610 -57,-609 -42,-614 -41,-621 -50,-610 -55,-621 -51,-621 -63,-621 -52,-632 -53,-628 -66,-631 -52,-627 -45,-623 -38,-627 -45,-631 -53,-622 -51,-614 -41,-622 -38,-624 -31,-627 -23,-624 -30,-621 -37,-629 -39,-635 -32,-642 -25,-635 -32,-629 -39,-635 -45,-647 -41,-644 -27,-647 -40,-648 -52,-646 -41,-654 -38,-656 -31,-659 -24,-656 -31,-653 -38,-654 -45,-664 -43,-663 -34,-665 -42,-667 -49,-659 -50,-666 -49,-670 -56,-673 -49,-676 -42,-689 -43,-678 -42,-681 -54,-687 -53,-693 -62,-701 -62,-692 -62,-688 -53,-694 -48,-699 -55,-694 -47,-699 -44,-705 -47,-706 -39,-705 -46,-712 -51,-722 -52,-713 -52,-714 -60,-708 -61,-722 -64,-715 -61,-712 -52,-714 -43,-709 -32,-714 -44,-725 -46,-732 -56,-737 -53,-745 -58,-750 -64,-744 -56,-753 -51,-744 -57,-740 -66,-730 -65,-732 -56,-736 -53,-744 -57,-740 -66,-730 -66,-732 -56,-725 -45,-732 -42,-726 -36,-720 -31,-714 -26,-720 -31,-725 -36,-730 -28,-736 -36,-730 -29,-739 -24,-727 -18,-715 -13,-727 -19,-739 -24,-748 -32,-742 -42,-748 -32,-756 -33,-763 -35,-768 -42,-765 -50,-767 -42,-776 -39,-776 -53,-776 -39,-767 -42,-765 -35,-756 -33,-748 -32,-739 -24,-729 -29,-725 -37,-731 -43,-725 -46,-714 -44,-712 -52,-706 -47,-699 -43,-693 -48,-688 -53,-682 -54,-677 -44,-670 -56,-666 -43,-655 -45,-654 -39,-652 -35,-651 -44,-647 -36,-647 -45,-642 -37,-643 -47,-637 -38,-640 -49,-633 -42,-637 -50,-633 -46,-631 -53,-637 -54,-649 -53,-661 -56,-650 -53,-653 -60,-650 -53,-637 -54,-644 -66,-637 -55,-641 -55,-628 -57,-641 -51,-626 -55,-639 -47,-625 -53,-636 -44,-625 -50,-634 -45,-631 -40,-623 -38,-620 -35,-625 -41,-614 -36,-621 -44,-609 -37,-616 -45,-605 -40,-611 -46,-609 -44,-610 -58,-614 -64,-622 -65,-624 -73,-625 -80,-623 -73,-621 -66,-619 -69,-609 -66,-597 -70,-604 -63,-612 -65,-620 -67,-630 -68,-639 -69,-639 -78,-637 -69,-649 -68,-650 -78,-648 -68,-662 -66,-650 -68,-655 -62,-655 -69,-651 -60,-650 -73,-647 -59,-646 -73,-643 -59,-642 -74,-639 -61,-638 -75,-635 -62,-634 -75,-631 -61,-630 -75,-628 -59,-626 -75,-624 -60,-621 -78,-619 -60,-617 -79,-616 -57,-613 -79,-613 -53,-609 -76,-610 -51,-606 -75,-606 -49,-602 -77,-603 -47,-597 -79,-599 -46,-593 -79,-596 -46,-591 -75,-593 -63,-591 -74,-589 -64,-587 -76,-585 -65,-582 -77,-581 -65,-578 -77,-578 -65,-574 -76,-574 -65,-571 -74,-574 -66,-573 -56,-560 -53,-547 -51,-540 -50,-532 -48,-518 -46,-504 -44,-502 -49,-496 -50,-501 -48,-505 -43,-492 -41,-479 -39,-466 -36,-453 -34,-440 -32,-427 -29,-440 -32,-453 -34,-466 -37,-480 -39,-493 -42,-506 -44,-520 -46,-533 -49,-520 -46,-506 -44,-493 -42,-480 -39,-466 -37,-453 -34,-440 -32,-426 -29,-415 -27,-403 -25,-392 -23,-404 -25,-407 -17,-409 -8,-406 -17,-403 -25,-411 -26,-418 -21,-422 -14,-418 -20,-424 -22,-433 -19,-425 -22,-427 -30,-425 -22,-418 -21,-411 -26,-418 -28,-426 -30,-434 -30,-443 -29,-440 -23,-454 -23,-467 -22,-481 -22,-495 -21,-481 -22,-468 -22,-454 -23,-440 -23,-432 -21,-428 -16,-443 -16,-458 -15,-473 -15,-487 -15,-502 -15,-488 -15,-473 -15,-459 -15,-444 -15,-429 -15,-422 -14,-412 -8,-427 -8,-441 -8,-456 -8,-470 -8,-485 -8,-500 -8,-504 -1,-499 -9,-499 -15,-508 -18,-521 -19,-534 -21,-546 -23,-541 -33,-533 -32,-525 -31,-533 -32,-541 -33,-547 -22,-557 -22,-550 -34,-556 -35,-550 -34,-557 -22,-569 -22,-580 -21,-585 -12,-589 -3,-576 -2,-562 -2,-548 -2,-534 -2,-520 -2,-521 11,-520 -2,-512 -2,-503 -2,-494 -3,-483 0,-494 -3,-497 4,-493 -5,-502 4,-498 -5,-506 4,-502 -6,-511 4,-507 -6,-516 4,-511 -6,-521 4,-516 -6,-525 4,-520 -6,-530 4,-525 -6,-535 4,-530 -6,-540 4,-534 -6,-545 4,-539 -6,-550 4,-544 -6,-555 4,-549 -6,-560 4,-554 -7,-565 4,-558 -7,-570 3,-563 -7,-575 3,-568 -7,-580 3,-572 -9,-584 2,-576 -10,-583 -6,-594 -6,-605 -6,-609 -14,-609 -21,-615 -20,-603 -20,-616 -16,-604 -16,-615 -11,-603 -12,-612 -7,-600 -8,-609 -4,-620 -4,-631 -3,-642 -3,-645 -1,-658 0,-660 -6,-668 -6,-677 -6,-666 -6,-666 0,-677 1,-666 1,-666 -6,-660 -6,-658 -1,-647 -1,-646 -8,-644 3,-642 -8,-640 3,-638 -8,-635 3,-635 -8,-631 3,-631 -8,-626 3,-627 -9,-622 3,-623 -9,-617 3,-619 -9,-612 3,-615 -9,-607 3,-610 -4,-624 -8,-625 -13,-622 -22,-625 -13,-628 -7,-623 -17,-624 -4,-619 -15,-620 -2,-616 -13,-615 1,-612 -11,-611 3,-610 -10,-606 4,-608 -10,-600 5,-605 -10,-595 5,-603 -10,-590 4,-602 -11,-584 2,-598 -10,-578 0,-600 -13,-574 -4,-594 -12,-571 -8,-598 -15,-570 -12,-597 -17,-570 -16,-597 -19,-570 -20,-597 -21,-585 -23,-599 -23,-613 -23,-627 -23,-641 -23,-654 -24,-668 -24,-673 -35,-669 -25,-677 -18,-684 -25,-671 -28,-678 -26,-686 -25,-690 -28,-684 -38,-688 -30,-693 -23,-696 -30,-699 -37,-696 -29,-693 -21,-692 -14,-692 -6,-683 -4,-674 -1,-684 -4,-694 -7,-694 1,-694 10,-694 18,-694 26,-692 15,-690 5,-689 -4,-687 -12,-684 -22,-697 -21,-696 -11,-696 -1,-695 12,-695 26,-695 40,-696 55,-696 69,-696 83,-697 98,-697 112,-697 127,-698 141,-698 155,-698 170,-698 184,-699 199,-687 198,-674 197,-687 198,-699 198,-699 206,-700 214,-688 214,-676 214,-671 218,-661 213,-671 219,-679 214,-678 199,-678 184,-678 169,-678 154,-678 139,-677 124,-677 109,-677 94,-677 79,-677 64,-676 49,-676 34,-676 19,-676 4,-675 -11,-680 -12,-672 -12,-680 -8,-672 -8,-680 -4,-672 -4,-680 0,-672 0,-680 4,-672 4,-680 8,-672 8,-680 12,-672 13,-680 17,-672 17,-680 21,-672 21,-680 25,-672 25,-680 29,-672 29,-680 33,-672 33,-680 37,-672 37,-680 41,-672 42,-680 46,-672 46,-680 50,-672 50,-681 54,-673 54,-681 58,-673 58,-681 62,-673 62,-681 66,-673 66,-681 71,-673 71,-681 75,-673 75,-681 79,-673 79,-681 83,-673 83,-681 87,-673 87,-681 91,-673 91,-681 95,-673 96,-681 100,-673 100,-681 104,-673 104,-681 108,-673 108,-681 112,-673 112,-681 116,-673 116,-681 120,-673 120,-681 124,-673 125,-681 129,-673 129,-682 133,-674 133,-682 137,-674 137,-682 141,-674 141,-682 145,-674 145,-682 149,-674 149,-682 154,-674 154,-682 158,-674 158,-682 162,-674 162,-682 166,-674 166,-682 170,-674 170,-682 174,-674 174,-682 179,-674 179,-682 183,-674 183,-682 187,-674 187,-682 192,-674 192,-682 196,-674 196,-682 200,-674 200,-682 203,-674 205,-682 206,-675 211,-683 210,-675 218,-685 210,-681 218,-688 210,-686 218,-691 210,-691 218,-695 210,-695 218,-699 210,-699 218,-703 210,-703 218,-699 210,-696 211,-704 211,-695 207,-703 207,-695 203,-703 203,-695 199,-703 199,-695 195,-703 194,-695 191,-703 190,-695 186,-703 186,-695 182,-703 182,-695 178,-703 178,-695 174,-703 174,-695 170,-703 170,-695 166,-703 165,-694 161,-702 161,-694 157,-702 157,-694 153,-702 153,-694 149,-702 149,-694 145,-702 145,-694 141,-702 141,-694 137,-702 136,-694 132,-702 132,-694 128,-702 128,-694 124,-702 124,-693 120,-701 120,-693 116,-701 116,-693 112,-701 111,-693 108,-701 107,-693 103,-701 103,-693 99,-701 99,-693 95,-701 95,-693 91,-701 91,-693 87,-701 87,-693 83,-701 82,-693 78,-701 78,-692 74,-700 74,-692 70,-700 70,-692 66,-700 66,-692 62,-700 62,-692 58,-700 58,-692 54,-700 54,-692 50,-700 50,-692 46,-700 46,-692 42,-700 42,-692 38,-700 38,-691 34,-699 34,-691 30,-699 30,-691 26,-699 26,-690 25,-702 23,-687 20,-703 19,-684 15,-703 15,-682 11,-704 11,-682 8,-704 7,-682 4,-706 4,-682 0,-705 -1,-679 -4,-707 -4,-679 -8,-706 -8,-674 -12,-708 -12,-671 -16,-706 -16,-672 -20,-682 -22,-692 -25,-681 -28,-697 -28,-678 -26,-706 -23,-675 -23,-706 -19,-672 -20,-669 -31,-672 -16,-665 -31,-668 -16,-661 -31,-664 -16,-657 -30,-659 -16,-652 -30,-655 -17,-648 -30,-651 -17,-644 -30,-647 -17,-640 -30,-642 -17,-636 -30,-638 -17,-632 -29,-634 -17,-628 -29,-630 -17,-623 -29,-626 -17,-619 -29,-621 -17,-615 -29,-617 -17,-611 -28,-613 -17,-607 -29,-609 -17,-602 -30,-604 -17,-598 -30,-600 -17,-594 -29,-596 -17,-590 -29,-592 -16,-586 -28,-588 -16,-582 -27,-583 -16,-578 -27,-579 -16,-574 -27,-575 -16,-569 -27,-570 -16,-565 -26,-566 -16,-561 -26,-562 -16,-557 -26,-558 -16,-553 -26,-553 -16,-548 -26,-549 -16,-544 -26,-545 -16,-540 -26,-541 -16,-536 -26,-537 -16,-532 -26,-532 -16,-528 -26,-528 -14,-524 -25,-524 -14,-520 -25,-520 -14,-516 -24,-516 -14,-512 -24,-512 -14,-507 -23,-508 -14,-507 -17,-499 -15,-507 -15,-494 -15,-506 -11,-494 -12,-504 -8,-494 -8,-481 -8,-467 -8,-453 -8,-440 -8,-426 -8,-412 -8,-407 -4,-416 2,-407 -5,-399 -3,-402 3,-398 -14,-406 2,-402 -14,-410 1,-406 -14,-413 -1,-409 -15,-416 -3,-413 -16,-420 -6,-417 -17,-423 -8,-421 -16,-428 -15,-432 -21,-441 -23,-434 -23,-447 -24,-434 -26,-449 -27,-435 -30,-450 -29,-465 -30,-479 -30,-493 -30,-507 -30,-521 -30,-507 -30,-492 -30,-477 -30,-462 -30,-447 -30,-437 -30,-427 -29,-415 -27,-403 -25,-391 -23,-393 -19,-396 -10,-399 -1,-391 1,-391 10,-400 10,-410 10,-408 3,-411 10,-417 12,-415 1,-417 11,-423 9,-422 1,-423 10,-416 12,-416 26,-416 40,-417 54,-417 68,-428 69,-439 69,-440 55,-440 41,-440 27,-430 28,-420 29,-429 27,-438 26,-439 20,-430 20,-422 20,-430 20,-438 20,-437 10,-429 9,-422 8,-429 9,-437 10,-429 0,-438 10,-444 13,-445 0,-445 13,-458 8,-444 13,-444 23,-456 25,-456 12,-456 0,-456 11,-456 22,-465 19,-466 9,-467 -1,-466 11,-474 15,-474 7,-474 -1,-474 8,-474 16,-481 15,-484 8,-483 -2,-484 8,-491 8,-491 3,-491 15,-491 26,-491 38,-491 49,-491 36,-484 36,-476 36,-491 37,-491 25,-491 14,-481 19,-491 14,-499 11,-499 25,-499 39,-499 53,-499 67,-499 81,-499 95,-499 109,-499 123,-484 123,-470 123,-456 124,-442 124,-428 125,-414 125,-414 133,-428 132,-443 132,-457 131,-471 131,-485 130,-471 131,-457 131,-442 132,-428 132,-414 133,-414 125,-428 125,-441 124,-455 124,-469 123,-483 123,-496 123,-496 131,-496 140,-481 140,-467 140,-452 140,-438 141,-423 141,-408 141,-407 149,-399 149,-391 149,-400 149,-408 149,-408 160,-408 170,-408 159,-408 149,-422 149,-437 148,-452 148,-466 147,-481 147,-496 146,-497 156,-498 166,-497 156,-493 157,-502 157,-490 152,-502 152,-490 148,-502 148,-499 144,-510 144,-510 149,-509 136,-506 149,-505 137,-503 149,-500 137,-499 149,-496 137,-489 138,-502 139,-489 134,-502 135,-489 131,-502 131,-489 128,-502 127,-489 125,-502 123,-499 119,-499 106,-499 92,-499 78,-499 65,-499 51,-499 38,-499 24,-499 10,-509 10,-500 10,-490 15,-481 19,-468 28,-466 41,-464 55,-462 68,-460 82,-445 81,-430 80,-419 78,-408 76,-402 80,-412 76,-415 86,-412 97,-409 107,-406 118,-407 126,-408 134,-407 126,-406 118,-403 116,-414 107,-424 98,-434 89,-444 80,-454 71,-464 62,-475 53,-485 44,-480 30,-480 16,-467 16,-455 22,-442 22,-443 14,-436 14,-436 26,-436 39,-436 51,-437 64,-429 64,-421 64,-420 51,-420 39,-419 26,-419 14,-408 14,-410 28,-410 42,-409 56,-409 70,-409 84,-409 98,-408 112,-422 112,-435 111,-448 111,-461 110,-474 110,-487 110,-488 98,-488 86,-488 74,-488 61,-488 49,-480 49,-480 44,-481 66,-481 106,-481 110,-465 101,-449 93,-430 101,-411 112,-411 96,-411 56,-411 18,-419 14,-420 37,-421 59,-421 86,-421 112,-431 76,-431 68,-431 64,-439 61,-450 49,-460 36,-450 26,-441 14,-441 26,-441 66,-441 106,-441 111,-451 111,-451 96,-451 56,-461 20,-461 46,-461 86,-461 110,-471 76,-471 36,-471 29,-471 16,-479 13,-486 15,-458 15,-470 17,-477 17,-486 17,-473 24,-462 31,-452 25,-443 19,-435 12,-450 11,-437 11,-430 11,-440 13,-450 15,-429 15,-436 17,-470 17,-486 19,-479 19,-443 19,-429 19,-456 21,-486 23,-469 23,-436 23,-429 23,-443 24,-479 24,-486 26,-456 26,-429 26,-469 28,-486 30,-479 30,-442 30,-429 30,-455 32,-486 34,-469 34,-429 34,-442 36,-479 36,-486 38,-455 38,-430 38,-468 40,-486 41,-479 41,-441 41,-430 41,-455 43,-488 45,-495 45,-468 45,-430 45,-441 47,-481 47,-495 49,-488 49,-454 49,-430 49,-467 51,-495 53,-481 53,-441 53,-430 53,-454 55,-488 55,-495 57,-467 57,-430 57,-440 58,-480 58,-495 60,-488 60,-453 60,-430 60,-435 72,-439 86,-443 100,-447 114,-438 115,-428 116,-402 117,-409 117,-418 117,-436 115,-402 113,-423 113,-463 113,-494 113,-487 111,-450 111,-410 111,-402 109,-437 109,-477 109,-494 109,-463 108,-423 108,-402 106,-410 106,-450 106,-487 106,-494 106,-477 104,-437 104,-402 102,-424 102,-464 102,-494 102,-487 100,-451 100,-411 100,-402 98,-437 98,-477 98,-494 98,-464 96,-424 96,-402 94,-411 94,-451 94,-487 94,-494 94,-478 92,-438 92,-402 91,-425 91,-465 91,-494 91,-487 89,-451 89,-411 89,-402 87,-438 87,-478 87,-494 87,-465 85,-425 85,-402 83,-412 83,-452 83,-487 83,-494 83,-479 81,-439 81,-403 79,-425 79,-465 79,-494 79,-487 77,-452 77,-412 77,-403 75,-439 75,-479 75,-494 75,-466 74,-426 74,-403 72,-413 72,-453 72,-487 72,-494 72,-479 70,-439 70,-403 68,-426 68,-466 68,-494 68,-487 66,-453 66,-413 66,-403 64,-440 64,-480 64,-494 64,-467 62,-427 62,-403 60,-413 60,-453 60,-487 60,-495 60,-455 59,-427 58,-410 58,-403 57,-420 57,-427 57,-414 55,-403 53,-427 53,-415 51,-403 49,-414 49,-427 49,-415 47,-403 45,-427 45,-415 43,-403 41,-426 41,-415 40,-403 38,-415 38,-426 38,-415 36,-403 34,-426 34,-415 32,-403 30,-426 30,-415 28,-403 26,-416 26,-426 26,-415 24,-403 23,-426 23,-416 21,-402 19,-409 19,-425 19,-413 17,-401 15,-417 15,-425 15,-408 13,-400 11,-425 11,-417 9,-404 9,-391 10,-391 24,-391 38,-391 52,-392 65,-392 79,-392 93,-392 107,-392 121,-392 134,-393 148,-391 158,-390 168,-402 167,-414 167,-426 167,-425 161,-430 160,-420 160,-433 165,-418 166,-425 165,-435 165,-445 164,-441 159,-448 157,-437 156,-451 160,-436 160,-453 163,-436 163,-445 163,-453 163,-461 163,-461 158,-466 156,-457 157,-469 160,-455 161,-471 164,-454 164,-478 164,-478 160,-472 158,-482 157,-470 163,-488 165,-491 158,-489 167,-504 166,-503 163,-511 164,-516 165,-527 162,-517 165,-511 163,-511 149,-511 134,-511 120,-510 105,-510 91,-510 76,-509 61,-509 47,-509 32,-508 18,-508 3,-512 1,-504 2,-512 6,-504 6,-512 10,-504 10,-512 14,-504 14,-512 18,-504 18,-512 22,-504 22,-513 26,-505 26,-513 30,-505 31,-513 35,-505 35,-513 39,-505 39,-513 43,-505 43,-513 47,-505 47,-513 51,-505 51,-513 55,-505 55,-513 59,-505 60,-513 64,-505 64,-514 68,-506 68,-514 72,-506 72,-514 76,-506 76,-514 80,-506 80,-514 84,-506 85,-514 88,-506 89,-514 93,-506 93,-514 97,-506 97,-514 101,-506 101,-514 105,-506 105,-515 109,-507 109,-515 113,-507 114,-515 118,-507 118,-515 122,-507 122,-515 126,-507 126,-515 130,-507 130,-515 134,-507 134,-515 138,-507 138,-515 142,-507 142,-515 146,-507 146,-515 150,-507 150,-516 155,-508 153,-516 160,-508 156,-516 167,-509 160,-509 167,-507 159,-504 167,-504 159,-504 166,-495 166,-487 165,-473 165,-459 165,-445 165,-431 166,-418 167,-404 167,-390 168,-384 175,-378 182,-363 183,-356 180,-355 168,-355 154,-354 140,-354 127,-354 113,-354 100,-340 99,-339 85,-352 85,-365 85,-366 75,-352 75,-339 75,-353 76,-366 76,-366 65,-353 65,-340 64,-353 64,-367 64,-367 54,-353 54,-340 54,-340 64,-339 75,-339 85,-339 71,-340 58,-340 44,-343 44,-335 44,-344 48,-336 48,-344 52,-336 52,-344 56,-336 56,-344 60,-336 60,-344 64,-336 64,-344 68,-336 68,-344 72,-336 72,-344 76,-336 77,-344 80,-336 81,-344 85,-336 85,-344 89,-336 89,-344 93,-336 93,-344 97,-336 97,-342 98,-354 98,-365 98,-365 85,-365 71,-365 58,-365 44,-353 44,-340 44,-330 34,-316 34,-301 35,-287 35,-272 35,-258 36,-253 42,-248 49,-256 56,-265 64,-273 64,-282 64,-283 56,-285 48,-283 56,-281 63,-283 56,-283 71,-279 56,-279 71,-275 56,-275 71,-271 56,-271 71,-267 56,-267 71,-264 59,-264 71,-264 64,-256 56,-248 49,-263 49,-277 48,-291 48,-292 62,-292 77,-282 77,-272 77,-262 77,-258 84,-255 91,-266 96,-266 86,-266 77,-274 77,-274 86,-274 96,-283 96,-283 86,-283 77,-292 77,-292 86,-292 96,-281 96,-270 96,-270 107,-270 119,-279 119,-287 119,-274 119,-261 119,-261 129,-261 140,-269 137,-277 135,-264 140,-251 145,-260 141,-269 138,-269 128,-269 119,-261 118,-254 114,-247 109,-254 114,-261 118,-270 118,-270 108,-260 108,-250 108,-260 108,-270 109,-269 96,-278 96,-287 96,-287 107,-287 119,-287 130,-281 138,-276 145,-268 158,-261 171,-273 171,-286 171,-286 179,-277 179,-268 179,-268 189,-279 188,-289 188,-279 189,-269 189,-268 177,-269 166,-272 154,-260 157,-249 153,-250 167,-258 173,-266 179,-269 189,-275 188,-263 190,-275 185,-262 186,-275 181,-261 182,-275 178,-255 178,-275 174,-250 174,-275 171,-244 170,-276 167,-243 167,-276 164,-243 163,-277 161,-243 160,-277 158,-243 156,-278 154,-243 153,-269 154,-277 144,-286 134,-286 148,-287 163,-288 178,-293 187,-292 174,-292 161,-291 148,-291 135,-290 122,-290 108,-289 95,-288 99,-286 95,-286 109,-283 123,-276 135,-274 149,-283 152,-285 164,-285 176,-286 188,-289 183,-293 187,-299 186,-280 188,-299 182,-279 184,-299 179,-279 180,-299 175,-279 176,-298 171,-279 172,-298 167,-278 168,-298 163,-278 164,-298 159,-278 160,-298 155,-278 156,-298 151,-268 153,-298 148,-267 149,-298 144,-267 146,-297 141,-267 142,-297 137,-267 138,-297 133,-269 135,-297 130,-271 131,-297 126,-274 127,-297 123,-276 123,-297 119,-277 119,-297 115,-279 115,-296 111,-280 111,-296 107,-280 107,-296 103,-280 103,-296 99,-280 99,-296 96,-280 95,-292 94,-292 82,-291 71,-291 59,-290 47,-302 47,-314 47,-326 47,-327 61,-327 75,-313 75,-300 75,-309 75,-309 83,-309 91,-309 83,-308 75,-305 66,-301 58,-301 69,-301 79,-301 90,-301 76,-300 62,-300 47,-301 56,-305 65,-308 74,-315 74,-315 61,-315 48,-315 62,-315 75,-323 75,-322 87,-321 100,-313 99,-304 99,-304 112,-313 114,-322 115,-314 114,-306 112,-306 123,-306 134,-320 135,-306 134,-306 143,-306 152,-320 151,-307 151,-308 162,-308 172,-311 182,-313 192,-315 202,-326 201,-338 201,-349 200,-334 201,-319 202,-304 203,-290 204,-275 205,-260 205,-245 206,-256 205,-256 195,-269 194,-282 193,-294 193,-307 192,-320 191,-333 190,-336 201,-333 190,-323 191,-312 191,-302 192,-304 203,-302 193,-287 193,-288 204,-287 193,-273 195,-274 205,-274 195,-265 195,-256 195,-256 205,-271 204,-286 204,-300 203,-315 202,-313 192,-311 183,-318 179,-326 176,-325 166,-325 157,-330 152,-330 141,-330 130,-330 141,-330 152,-324 156,-333 152,-317 154,-333 157,-317 157,-333 161,-317 161,-333 166,-320 163,-333 173,-318 163,-333 181,-320 166,-331 187,-320 170,-325 188,-317 164,-319 188,-316 169,-314 188,-315 171,-308 189,-314 164,-303 187,-311 170,-301 181,-313 165,-300 174,-311 165,-300 168,-309 164,-300 162,-313 161,-300 158,-313 157,-300 154,-313 153,-300 150,-311 149,-300 146,-311 145,-299 141,-311 141,-299 137,-310 137,-299 133,-310 133,-299 128,-310 128,-299 124,-310 124,-299 120,-309 120,-299 116,-309 116,-299 112,-309 111,-299 107,-309 107,-299 103,-309 103,-306 98,-304 91,-310 87,-299 86,-311 89,-299 93,-312 90,-299 99,-313 92,-300 106,-312 94,-306 106,-315 92,-312 107,-319 91,-317 107,-324 102,-323 115,-323 128,-319 134,-319 142,-319 150,-326 152,-317 153,-326 147,-315 149,-326 143,-314 145,-326 139,-314 141,-327 135,-314 137,-332 130,-314 133,-332 126,-314 129,-332 122,-314 125,-332 118,-313 121,-332 114,-312 117,-332 110,-312 113,-332 106,-314 109,-331 102,-315 105,-331 98,-315 100,-331 94,-315 96,-331 90,-315 92,-331 86,-315 88,-331 82,-315 83,-331 78,-317 79,-330 73,-319 74,-330 69,-321 70,-330 65,-322 65,-327 65,-327 56,-327 47,-327 51,-326 43,-323 51,-322 43,-318 51,-318 43,-314 51,-314 43,-310 51,-310 43,-306 52,-306 44,-302 52,-302 44,-298 52,-297 44,-293 52,-293 44,-289 52,-289 44,-285 52,-285 44,-281 52,-281 44,-277 52,-277 44,-273 52,-273 44,-269 52,-269 44,-265 52,-265 44,-261 52,-261 44,-257 53,-257 45,-253 53,-253 45,-249 53,-249 45,-240 52,-234 60,-228 67,-229 81,-240 81,-251 80,-240 81,-229 81,-229 91,-241 90,-252 90,-241 90,-230 91,-230 100,-241 100,-251 100,-251 86,-251 72,-259 72,-246 71,-259 76,-246 75,-259 80,-246 79,-259 83,-246 83,-259 87,-246 87,-259 91,-246 91,-259 95,-246 96,-259 99,-246 100,-241 106,-242 119,-242 133,-243 146,-243 160,-243 173,-244 187,-230 191,-230 177,-230 164,-232 150,-230 137,-229 124,-230 110,-227 97,-226 84,-226 70,-225 57,-225 43,-237 46,-250 42,-251 55,-251 68,-241 72,-231 75,-233 86,-234 98,-244 105,-256 107,-253 119,-251 131,-259 141,-255 153,-255 165,-255 178,-254 190,-242 187,-230 191,-223 191,-261 190,-223 188,-261 186,-223 184,-262 183,-223 181,-262 179,-223 178,-261 176,-223 174,-261 172,-223 171,-261 169,-223 167,-261 165,-223 164,-261 162,-224 160,-261 158,-226 157,-261 155,-226 153,-262 151,-225 150,-264 148,-220 147,-266 144,-222 143,-268 141,-223 140,-265 137,-223 137,-261 134,-222 133,-258 131,-222 130,-258 127,-223 126,-258 124,-222 123,-259 120,-221 120,-262 116,-221 116,-263 113,-222 113,-263 110,-224 109,-262 106,-222 106,-262 103,-221 103,-260 99,-220 99,-241 98,-220 96,-240 94,-220 92,-240 90,-220 88,-239 86,-220 84,-239 82,-220 80,-238 78,-219 77,-240 75,-219 75,-258 71,-219 72,-258 67,-219 68,-258 64,-219 65,-258 60,-219 61,-257 57,-219 58,-257 54,-219 54,-257 50,-218 51,-257 47,-218 47,-257 44,-218 43,-256 41,-255 29,-256 42,-259 29,-260 42,-263 29,-264 41,-267 28,-268 41,-271 28,-272 41,-275 28,-276 41,-279 28,-280 41,-283 28,-284 41,-288 28,-289 41,-291 28,-293 41,-295 28,-296 41,-299 27,-300 40,-303 27,-304 40,-307 27,-308 40,-311 27,-312 40,-315 27,-316 40,-319 27,-320 40,-323 27,-324 40,-327 26,-328 40,-331 26,-332 40,-340 42,-338 50,-337 35,-342 50,-341 35,-346 50,-345 35,-350 50,-349 34,-354 50,-353 34,-357 51,-358 34,-358 51,-364 34,-360 50,-370 34,-361 51,-371 42,-362 52,-371 48,-360 55,-372 54,-359 59,-372 58,-359 63,-372 63,-359 67,-372 67,-359 71,-372 71,-359 75,-372 75,-359 79,-372 79,-359 84,-372 83,-359 88,-373 88,-359 92,-373 92,-341 93,-341 106,-341 119,-342 132,-342 144,-342 157,-342 170,-342 183,-355 179,-367 183,-367 170,-367 157,-367 144,-367 131,-366 118,-366 105,-366 92,-354 96,-341 93,-334 93,-373 91,-334 97,-373 95,-335 100,-373 98,-335 103,-373 102,-335 107,-373 105,-335 110,-373 109,-335 114,-373 112,-335 117,-373 116,-335 120,-373 119,-335 124,-373 122,-335 127,-373 126,-335 131,-373 129,-335 134,-373 133,-335 138,-373 136,-335 141,-373 140,-335 144,-373 143,-335 148,-373 147,-335 151,-373 150,-335 155,-373 154,-336 158,-373 158,-336 162,-373 161,-336 166,-373 165,-336 169,-373 168,-336 173,-373 172,-336 176,-374 175,-336 180,-374 179,-336 183,-374 183,-378 182,-387 178,-396 178,-404 178,-416 183,-428 187,-440 192,-451 197,-461 192,-471 186,-481 181,-491 175,-494 178,-490 171,-490 180,-487 173,-487 182,-483 175,-483 184,-479 177,-479 186,-476 179,-476 188,-472 181,-472 190,-468 183,-469 192,-465 185,-465 194,-461 187,-461 196,-458 189,-458 198,-454 191,-454 200,-450 193,-454 198,-441 193,-429 188,-416 183,-404 177,-418 177,-433 177,-448 176,-462 176,-477 175,-492 175,-507 174,-521 174,-515 178,-515 170,-511 178,-511 170,-507 178,-507 170,-503 178,-503 170,-499 178,-499 170,-495 179,-494 171,-491 179,-490 171,-486 179,-486 171,-482 179,-482 171,-478 179,-478 171,-474 179,-474 171,-470 179,-470 171,-466 179,-465 171,-461 179,-461 171,-457 180,-457 172,-453 180,-453 172,-449 180,-449 172,-445 180,-445 172,-441 180,-441 172,-437 180,-436 172,-433 180,-432 172,-428 180,-428 172,-424 180,-424 172,-420 181,-420 173,-416 181,-415 173,-411 181,-411 173,-407 181,-407 173,-403 181,-403 173,-399 181,-398 173,-394 181,-394 173,-390 181,-390 173,-386 181,-386 173,-380 180,-393 184,-405 189,-418 194,-430 198,-443 203,-455 208,-468 201,-481 195,-493 188,-506 182,-519 175,-525 169,-528 178,-520 169,-524 180,-516 170,-521 182,-513 171,-517 184,-509 173,-513 186,-505 175,-509 188,-502 176,-505 190,-498 178,-501 192,-495 180,-497 194,-491 182,-493 196,-487 184,-489 198,-484 186,-485 200,-480 188,-481 202,-476 190,-477 204,-472 192,-473 206,-469 194,-469 208,-465 196,-465 210,-461 198,-461 212,-457 200,-457 213,-453 201,-452 212,-449 199,-448 210,-445 198,-444 209,-441 197,-440 207,-437 195,-435 206,-434 194,-431 204,-430 192,-427 203,-426 191,-423 201,-422 190,-419 200,-418 188,-415 198,-414 187,-411 197,-411 186,-406 195,-407 184,-402 194,-403 183,-398 192,-399 181,-394 191,-395 180,-389 189,-391 179,-385 188,-387 177,-380 186,-383 176,-375 184,-376 178,-382 183,-378 175,-384 180,-381 172,-387 177,-384 169,-390 173,-386 166,-393 170,-387 162,-395 166,-388 159,-396 161,-389 155,-396 157,-389 152,-397 153,-389 148,-397 149,-389 144,-397 144,-389 140,-397 140,-389 136,-397 136,-389 132,-397 132,-389 128,-397 128,-389 124,-397 124,-389 120,-397 119,-389 115,-397 115,-389 111,-397 111,-388 107,-396 107,-388 103,-396 103,-388 99,-396 99,-388 95,-396 95,-388 91,-396 90,-388 86,-396 86,-388 82,-396 82,-388 78,-396 78,-388 74,-396 74,-388 70,-396 70,-388 66,-396 66,-388 62,-396 61,-388 57,-396 57,-388 53,-396 53,-388 49,-396 49,-388 45,-396 45,-388 41,-396 41,-388 37,-396 37,-388 33,-396 33,-387 29,-395 29,-387 24,-395 24,-387 20,-395 20,-387 16,-395 16,-387 12,-395 12,-387 8,-395 8,-387 4,-395 4,-390 3,-376 3,-362 3,-348 3,-334 2,-320 2,-306 2,-306 -7,-306 -16,-324 -17,-325 -7,-325 3,-314 0,-303 0,-292 2,-288 -8,-282 -18,-296 -13,-310 -13,-324 -17,-283 -12,-325 -6,-291 -1,-325 3,-313 0,-304 -8,-303 -11,-317 -14,-330 -17,-276 -18,-331 -14,-276 -15,-331 -11,-276 -11,-332 -7,-276 -8,-332 -4,-283 -5,-332 -1,-284 -1,-331 3,-285 2,-305 4,-291 4,-277 4,-263 4,-249 4,-235 4,-220 4,-206 5,-208 1,-208 9,-212 0,-212 8,-216 0,-216 8,-220 0,-220 8,-225 0,-225 8,-229 0,-229 8,-233 0,-233 8,-237 0,-237 8,-241 0,-241 8,-245 0,-245 8,-249 0,-249 8,-254 0,-254 8,-258 0,-258 8,-262 0,-262 8,-266 0,-266 8,-270 0,-270 8,-274 0,-274 8,-278 0,-278 8,-283 0,-283 8,-287 0,-287 8,-291 0,-291 8,-295 0,-295 8,-299 0,-299 7,-303 -1,-303 7,-307 -1,-308 7,-312 -1,-312 7,-316 -1,-316 7,-320 -1,-320 7,-324 -1,-324 7,-328 -1,-328 7,-332 -1,-332 7,-337 -1,-337 7,-341 -1,-341 7,-345 -1,-345 7,-349 -1,-349 7,-353 -1,-353 7,-357 -1,-357 7,-361 -1,-361 7,-365 -1,-366 7,-370 -1,-370 7,-374 -1,-374 7,-378 -1,-378 7,-382 -1,-382 7,-385 -1,-387 7,-389 -2,-391 6,-391 -2,-396 5,-393 -3,-403 2,-392 -6,-402 -3,-392 -9,-400 -8,-391 -12,-399 -12,-390 -14,-398 -16,-389 -18,-397 -20,-392 -22,-377 -22,-362 -22,-347 -22,-332 -22,-318 -22,-303 -22,-305 -31,-309 -32,-300 -32,-310 -28,-298 -29,-310 -24,-297 -26,-302 -22,-288 -22,-274 -22,-259 -22,-245 -22,-231 -22,-216 -22,-202 -22,-202 -7,-202 7,-187 7,-173 7,-175 -3,-176 -13,-176 -23,-175 -13,-174 -3,-172 7,-158 8,-144 8,-130 8,-116 8,-101 9,-87 9,-73 9,-59 9,-62 -2,-65 -13,-62 -2,-60 9,-74 9,-89 9,-103 9,-117 8,-119 15,-117 8,-129 8,-140 8,-151 8,-151 15,-151 8,-162 8,-172 8,-173 16,-173 23,-173 15,-173 8,-187 8,-202 8,-202 15,-203 23,-190 23,-178 24,-178 38,-178 53,-178 68,-179 82,-179 97,-179 112,-179 127,-179 142,-179 156,-179 171,-179 186,-180 201,-180 216,-180 207,-166 202,-153 197,-140 192,-127 187,-114 182,-100 177,-87 172,-86 163,-78 159,-70 156,-71 152,-78 152,-90 156,-95 164,-91 156,-86 163,-87 173,-78 169,-87 172,-100 177,-113 181,-126 186,-137 177,-148 180,-158 184,-169 187,-180 191,-179 200,-167 195,-155 191,-143 186,-131 182,-125 187,-139 192,-152 197,-166 203,-180 208,-179 198,-179 187,-179 177,-173 177,-180 178,-179 169,-169 166,-158 163,-158 160,-169 160,-179 161,-179 154,-169 153,-159 153,-158 139,-169 139,-179 139,-170 139,-170 146,-179 146,-180 133,-168 132,-157 130,-168 123,-178 116,-167 123,-157 130,-168 132,-180 134,-179 125,-179 117,-169 117,-158 117,-158 111,-168 110,-179 110,-179 102,-179 94,-167 94,-156 94,-167 94,-179 94,-179 86,-165 86,-180 86,-179 79,-167 79,-156 79,-153 73,-166 72,-178 71,-178 61,-167 62,-178 61,-178 56,-167 54,-155 52,-155 45,-167 46,-178 48,-178 35,-166 33,-154 30,-161 32,-156 45,-163 33,-170 20,-162 33,-170 34,-178 35,-180 24,-168 17,-154 18,-141 18,-127 18,-136 19,-135 27,-131 34,-127 41,-131 34,-135 27,-145 27,-146 37,-138 40,-130 42,-145 38,-154 43,-154 53,-154 63,-141 66,-139 58,-140 51,-141 43,-140 58,-129 55,-139 58,-141 66,-149 64,-149 77,-149 90,-139 97,-129 104,-139 97,-150 91,-150 99,-151 108,-151 121,-152 134,-153 148,-153 161,-154 175,-143 171,-133 167,-125 157,-123 167,-121 177,-110 174,-98 170,-102 163,-112 166,-122 170,-124 158,-124 145,-124 132,-124 119,-124 106,-133 103,-133 115,-133 128,-133 140,-133 153,-133 166,-125 158,-118 159,-118 145,-117 131,-117 117,-116 103,-125 106,-133 103,-140 103,-110 103,-140 107,-110 106,-140 110,-110 109,-140 114,-110 112,-140 118,-110 115,-140 122,-110 119,-140 126,-110 122,-140 130,-111 125,-139 134,-111 128,-139 139,-111 132,-139 143,-111 135,-139 147,-111 139,-139 151,-111 142,-139 155,-111 146,-139 160,-111 149,-139 164,-111 153,-139 168,-112 156,-104 154,-102 142,-93 141,-85 142,-76 143,-76 129,-76 116,-76 103,-76 90,-76 77,-76 64,-76 51,-90 50,-76 50,-74 40,-83 33,-90 46,-102 46,-105 38,-105 30,-104 22,-97 24,-105 21,-113 19,-104 22,-105 30,-115 30,-115 37,-124 43,-115 37,-105 38,-116 36,-115 29,-105 30,-105 38,-102 46,-106 50,-111 63,-111 74,-111 85,-105 86,-116 86,-105 82,-116 82,-105 77,-116 77,-105 73,-116 73,-105 69,-116 69,-105 64,-116 64,-111 63,-106 50,-121 48,-124 45,-130 46,-130 52,-123 57,-137 57,-125 55,-137 51,-123 55,-136 44,-125 51,-133 39,-122 54,-127 38,-121 51,-122 36,-118 54,-118 35,-114 54,-114 44,-110 54,-110 44,-106 54,-106 44,-102 54,-102 35,-98 54,-98 37,-94 54,-95 37,-90 54,-91 37,-87 54,-87 37,-85 46,-90 37,-83 42,-90 31,-83 39,-84 28,-82 37,-77 27,-81 42,-74 32,-79 41,-68 36,-77 42,-68 41,-81 44,-69 47,-82 48,-69 51,-83 52,-69 54,-83 57,-69 58,-83 61,-69 62,-82 65,-69 65,-82 69,-69 70,-82 73,-69 74,-82 78,-70 78,-82 82,-70 82,-82 86,-70 86,-82 90,-70 90,-82 94,-70 95,-82 98,-70 99,-82 102,-70 103,-82 107,-70 108,-82 111,-70 112,-82 115,-70 116,-82 120,-70 121,-82 124,-70 125,-82 128,-70 130,-82 133,-70 134,-82 137,-70 138,-82 141,-70 143,-77 143,-85 141,-93 140,-94 130,-94 119,-95 109,-86 104,-86 94,-86 84,-92 82,-82 82,-92 86,-82 86,-92 90,-82 90,-92 94,-82 94,-92 97,-82 98,-92 101,-82 102,-95 103,-108 103,-122 103,-111 103,-99 103,-102 103,-102 115,-102 126,-100 138,-93 147,-89 137,-89 125,-89 114,-88 102,-95 106,-102 103,-109 103,-82 102,-109 107,-82 106,-109 111,-82 110,-109 115,-82 113,-109 118,-82 117,-109 122,-82 121,-109 126,-82 124,-109 130,-82 128,-109 134,-82 132,-109 137,-82 135,-106 141,-83 139,-103 145,-84 143,-100 148,-87 147,-103 144,-109 138,-98 137,-110 142,-98 141,-111 147,-98 144,-112 152,-98 148,-113 157,-98 152,-109 156,-116 159,-123 162,-133 168,-144 171,-154 174,-158 175,-158 162,-158 148,-157 135,-157 121,-157 108,-156 94,-157 81,-157 67,-156 54,-156 41,-154 44,-152 40,-150 55,-144 69,-145 83,-147 98,-147 113,-148 128,-149 143,-150 157,-150 172,-154 170,-158 175,-165 178,-144 170,-165 174,-144 166,-165 169,-143 162,-165 165,-143 158,-164 161,-143 154,-164 157,-143 149,-164 152,-143 145,-164 148,-142 141,-164 144,-142 137,-164 140,-142 133,-164 136,-142 129,-164 132,-141 125,-164 128,-141 121,-164 124,-141 117,-163 120,-141 114,-163 115,-141 110,-163 111,-140 106,-163 107,-140 102,-163 103,-140 98,-163 99,-140 94,-163 95,-139 90,-163 91,-139 86,-163 87,-139 82,-163 84,-139 78,-164 80,-138 75,-164 76,-138 71,-164 73,-138 68,-164 69,-137 64,-163 65,-140 61,-162 61,-142 58,-162 57,-144 54,-162 53,-144 51,-162 49,-145 47,-162 45,-145 43,-162 41,-146 40,-138 35,-131 32,-139 36,-147 39,-145 27,-134 27,-135 18,-146 18,-157 17,-168 17,-179 24,-179 18,-179 29,-183 18,-183 29,-187 18,-187 29,-191 18,-191 29,-195 18,-195 29,-199 18,-199 29,-203 23,-203 30,-203 38,-198 42,-199 56,-199 70,-199 84,-199 98,-199 112,-199 126,-199 140,-200 154,-200 168,-200 182,-200 196,-200 210,-200 224,-193 224,-185 224,-183 219,-183 230,-187 219,-187 230,-191 219,-191 230,-195 219,-195 230,-200 219,-200 230,-200 224,-201 235,-201 246,-191 246,-181 246,-181 239,-191 239,-200 239,-202 243,-216 242,-231 240,-246 239,-260 238,-275 237,-290 236,-305 235,-319 233,-334 232,-349 231,-363 230,-375 233,-377 227,-387 226,-386 232,-398 232,-400 225,-405 228,-415 227,-425 226,-427 230,-441 229,-455 229,-469 228,-483 227,-488 221,-499 220,-510 219,-499 219,-488 220,-483 227,-494 227,-505 226,-516 226,-519 218,-531 218,-543 218,-531 218,-519 218,-516 226,-530 225,-545 225,-559 224,-574 223,-588 222,-575 223,-561 223,-548 224,-555 216,-568 215,-582 215,-568 215,-555 216,-554 211,-541 211,-555 210,-568 209,-582 209,-595 208,-609 208,-623 207,-623 221,-631 221,-618 221,-605 222,-592 222,-596 222,-597 214,-605 214,-597 214,-596 222,-609 221,-623 221,-623 214,-631 214,-639 220,-649 220,-660 219,-650 220,-639 220,-634 220,-644 220,-634 217,-644 216,-636 214,-644 213,-635 217,-631 213,-623 214,-622 207,-632 206,-643 206,-653 205,-641 206,-629 206,-629 199,-615 199,-601 200,-587 200,-572 201,-558 201,-544 202,-530 203,-530 194,-518 194,-532 193,-546 193,-560 192,-575 191,-589 191,-603 190,-617 190,-632 189,-646 189,-638 180,-627 181,-622 178,-612 178,-612 184,-601 185,-601 178,-601 185,-611 185,-612 177,-607 177,-607 166,-607 177,-599 177,-593 179,-593 186,-593 178,-585 179,-574 183,-564 187,-570 179,-577 171,-584 179,-577 170,-570 178,-563 187,-573 183,-583 179,-594 178,-607 176,-613 178,-622 178,-626 181,-638 179,-632 170,-640 165,-647 159,-647 149,-646 139,-646 129,-633 129,-620 130,-633 130,-646 130,-646 118,-645 106,-645 94,-634 90,-634 77,-645 77,-656 77,-645 77,-634 77,-634 69,-645 69,-655 69,-645 69,-634 69,-634 59,-645 59,-655 59,-645 59,-634 59,-634 50,-644 50,-654 50,-644 50,-634 50,-634 38,-628 33,-622 28,-610 28,-599 29,-587 29,-576 29,-576 37,-576 29,-565 29,-561 36,-557 43,-570 42,-581 42,-592 42,-592 52,-592 41,-601 42,-600 53,-601 42,-611 43,-623 40,-609 38,-621 38,-610 44,-624 44,-624 49,-610 51,-613 59,-617 66,-604 68,-604 53,-604 64,-604 75,-604 87,-604 77,-604 68,-594 68,-585 68,-584 81,-584 95,-584 108,-584 95,-573 102,-572 115,-571 128,-572 114,-573 100,-573 91,-566 94,-559 98,-567 94,-574 90,-573 103,-584 95,-578 84,-569 85,-561 86,-569 85,-578 84,-578 77,-578 69,-569 69,-559 69,-567 69,-574 69,-576 59,-577 50,-576 59,-575 69,-573 77,-572 84,-578 85,-584 95,-584 85,-594 86,-584 85,-584 76,-584 68,-594 68,-594 80,-593 91,-593 103,-593 114,-581 118,-576 126,-574 117,-582 130,-576 113,-583 128,-580 109,-585 126,-584 107,-588 125,-588 106,-590 124,-592 107,-593 125,-592 134,-592 142,-581 139,-585 134,-577 145,-588 135,-582 145,-590 135,-586 146,-593 136,-590 149,-592 140,-593 126,-593 111,-593 97,-594 83,-594 68,-586 64,-586 55,-594 53,-580 52,-595 56,-579 56,-596 60,-578 60,-597 63,-578 64,-597 66,-577 68,-587 68,-597 68,-607 67,-618 66,-618 77,-619 87,-611 89,-604 92,-604 103,-604 115,-604 126,-604 116,-604 106,-604 96,-602 88,-610 87,-618 87,-614 92,-619 98,-611 97,-603 98,-607 92,-602 88,-601 81,-604 105,-605 81,-608 104,-610 81,-611 103,-614 81,-615 103,-618 81,-619 104,-619 120,-616 127,-614 135,-614 146,-614 157,-614 168,-601 168,-588 168,-600 168,-612 168,-608 167,-608 154,-608 140,-610 127,-615 115,-617 102,-618 88,-618 75,-611 63,-604 53,-609 56,-612 52,-617 66,-618 80,-618 95,-618 109,-619 124,-619 138,-620 152,-620 167,-614 163,-608 167,-601 167,-626 167,-601 164,-626 163,-601 160,-626 159,-601 156,-626 155,-601 152,-626 152,-601 148,-626 148,-601 144,-626 144,-601 141,-626 140,-601 137,-626 136,-601 133,-626 132,-601 129,-625 129,-603 125,-625 125,-606 121,-625 121,-608 117,-625 117,-609 113,-625 113,-609 109,-625 109,-610 105,-625 105,-610 101,-625 101,-611 97,-625 97,-611 93,-624 92,-611 89,-624 88,-612 85,-624 84,-612 80,-624 80,-612 76,-624 76,-613 72,-624 72,-609 68,-624 67,-601 64,-624 63,-599 61,-622 60,-598 57,-620 56,-597 53,-618 52,-610 51,-624 50,-624 42,-612 42,-601 42,-587 42,-573 42,-559 43,-547 44,-536 46,-536 54,-536 62,-536 54,-536 46,-534 35,-536 50,-538 35,-539 50,-543 35,-543 50,-547 34,-546 50,-551 34,-550 50,-556 34,-552 50,-561 34,-555 48,-566 38,-557 48,-570 42,-556 49,-564 47,-561 56,-558 64,-549 64,-539 64,-539 72,-539 81,-548 81,-557 81,-549 81,-540 81,-540 93,-530 93,-520 93,-530 93,-540 93,-545 89,-534 91,-545 86,-534 87,-545 82,-534 83,-545 79,-534 79,-545 76,-534 74,-545 74,-534 69,-545 72,-534 63,-545 70,-534 55,-543 70,-533 52,-543 68,-539 52,-546 71,-544 52,-547 68,-548 52,-549 72,-553 52,-550 74,-558 52,-559 64,-558 78,-558 92,-554 100,-550 107,-550 121,-551 136,-551 150,-540 151,-528 152,-541 151,-553 151,-564 142,-573 147,-583 152,-592 156,-582 151,-573 146,-563 141,-559 151,-555 160,-559 164,-569 164,-579 165,-589 165,-593 153,-583 162,-570 157,-570 144,-580 136,-577 127,-568 120,-560 110,-561 98,-561 86,-562 73,-559 61,-558 65,-557 61,-554 76,-552 90,-540 99,-540 113,-541 127,-543 142,-543 156,-543 171,-556 170,-568 169,-580 168,-593 167,-589 160,-593 153,-593 146,-593 173,-589 147,-589 174,-585 149,-585 174,-582 155,-582 174,-580 155,-577 175,-578 157,-571 175,-575 161,-564 176,-577 154,-557 176,-572 158,-549 177,-575 154,-539 178,-568 158,-536 174,-564 158,-537 169,-575 152,-537 164,-568 153,-537 159,-566 152,-537 154,-575 149,-537 149,-576 146,-537 146,-581 143,-537 143,-587 139,-536 139,-587 136,-535 136,-587 133,-534 133,-587 130,-534 130,-587 127,-534 127,-583 124,-534 124,-579 120,-534 120,-575 117,-534 117,-571 114,-534 114,-567 110,-534 110,-567 107,-534 107,-567 103,-533 103,-567 99,-533 99,-567 96,-533 96,-568 92,-533 92,-568 89,-541 89,-568 85,-548 85,-568 81,-548 81,-568 77,-548 77,-568 73,-548 73,-568 69,-548 69,-567 66,-549 65,-565 62,-550 61,-566 62,-551 61,-568 58,-552 58,-569 53,-553 55,-570 48,-555 51,-572 42,-556 48,-566 29,-559 32,-558 24,-564 36,-563 24,-568 35,-567 24,-572 34,-571 24,-576 34,-575 24,-580 34,-579 24,-584 34,-584 24,-589 34,-588 24,-593 35,-592 22,-597 35,-596 22,-601 35,-600 22,-605 35,-604 22,-609 35,-608 22,-613 35,-613 22,-617 35,-617 22,-621 36,-621 22,-625 34,-625 23,-624 31,-633 38,-644 38,-655 39,-655 52,-656 61,-657 69,-657 78,-657 86,-664 87,-646 87,-664 83,-649 83,-664 79,-651 79,-664 75,-650 75,-664 71,-650 71,-664 67,-650 67,-663 63,-650 63,-663 58,-650 59,-662 54,-649 55,-661 50,-649 51,-661 46,-649 48,-661 40,-649 46,-660 33,-649 44,-657 31,-649 41,-650 32,-646 43,-644 32,-645 41,-639 32,-643 43,-632 32,-641 43,-627 34,-639 43,-627 40,-639 45,-627 45,-639 47,-627 50,-640 50,-627 54,-640 54,-627 58,-640 58,-627 62,-640 62,-627 67,-640 67,-628 71,-640 71,-628 75,-640 75,-628 79,-640 79,-628 83,-640 84,-628 88,-640 88,-635 87,-635 101,-635 114,-635 128,-635 141,-635 155,-635 168,-647 165,-660 167,-658 154,-658 141,-656 127,-657 114,-658 100,-658 87,-646 91,-635 87,-628 87,-664 87,-628 91,-664 90,-628 95,-664 94,-628 98,-664 97,-628 102,-664 101,-628 105,-664 104,-628 109,-664 108,-628 112,-664 111,-628 116,-664 115,-628 119,-662 118,-628 123,-662 122,-628 126,-662 125,-628 130,-663 129,-628 133,-663 132,-628 137,-664 136,-628 140,-664 139,-628 144,-664 143,-628 147,-664 146,-628 151,-664 150,-628 154,-664 153,-628 158,-664 157,-628 162,-664 160,-628 165,-666 164,-628 169,-667 167,-631 168,-638 180,-646 189,-632 189,-617 190,-603 190,-588 191,-573 192,-559 192,-544 193,-530 193,-530 202,-544 202,-558 201,-572 201,-586 200,-600 200,-614 199,-628 198,-628 207,-614 208,-599 208,-584 209,-569 209,-554 210,-555 217,-547 224,-534 225,-520 226,-507 226,-493 227,-480 227,-466 228,-453 229,-439 229,-426 230,-424 223,-436 223,-448 222,-460 221,-472 220,-460 221,-448 222,-436 222,-425 223,-424 227,-424 231,-422 221,-420 232,-418 222,-416 232,-414 222,-412 233,-410 223,-408 233,-407 223,-404 234,-403 223,-400 234,-399 224,-398 232,-385 232,-388 226,-377 226,-374 233,-363 231,-365 235,-364 224,-360 236,-360 225,-356 236,-355 225,-352 236,-351 225,-348 237,-347 226,-344 237,-343 226,-340 237,-339 226,-336 238,-335 227,-332 238,-331 227,-327 238,-327 227,-323 239,-322 228,-319 239,-318 228,-315 239,-314 228,-311 240,-310 229,-307 240,-306 229,-303 240,-302 229,-298 240,-297 230,-294 241,-293 230,-290 241,-289 230,-286 241,-285 230,-282 242,-281 231,-278 242,-277 231,-274 242,-273 231,-269 243,-269 232,-265 243,-264 232,-261 243,-260 232,-257 244,-256 233,-253 244,-252 233,-249 244,-248 233,-245 245,-244 234,-240 245,-239 234,-236 245,-235 234,-232 246,-231 235,-228 246,-227 235,-223 246,-222 235,-219 247,-218 236,-215 247,-214 236,-211 247,-210 236,-206 248,-205 237,-202 248,-201 237,-197 239,-205 239,-197 235,-205 235,-197 231,-205 231,-197 227,-205 227,-197 223,-205 222,-197 218,-205 218,-197 214,-205 214,-197 210,-205 210,-197 206,-205 206,-197 202,-205 202,-196 198,-204 198,-196 193,-204 193,-196 189,-204 189,-196 185,-204 185,-196 181,-204 181,-196 177,-204 177,-196 173,-204 173,-196 169,-204 168,-196 164,-204 164,-196 160,-204 160,-196 156,-204 156,-196 152,-204 152,-196 148,-204 148,-196 144,-204 144,-196 140,-204 139,-196 135,-204 135,-195 131,-203 131,-195 127,-203 127,-195 123,-203 123,-195 119,-203 119,-195 115,-203 115,-195 110,-203 110,-195 106,-203 106,-195 102,-203 102,-195 98,-203 98,-195 94,-203 94,-195 90,-203 90,-195 86,-203 86,-195 82,-203 81,-195 77,-203 77,-195 73,-203 73,-195 69,-203 69,-194 65,-202 65,-194 61,-202 61,-194 57,-202 57,-194 53,-202 53,-194 49,-202 49,-194 45,-202 44,-194 40,-202 40,-201 41,-203 29,-205 17,-207 5,-209 -7,-213 -18,-204 -14,-196 -18,-195 -6,-194 6,-198 17,-201 29,-201 41,-208 41,-195 41,-206 37,-195 37,-210 32,-194 33,-210 28,-194 29,-210 24,-194 25,-210 20,-192 21,-213 16,-191 17,-213 12,-190 13,-213 8,-188 9,-213 5,-182 5,-214 1,-185 1,-214 -3,-188 -3,-219 -7,-188 -7,-219 -11,-186 -11,-220 -14,-188 -14,-220 -18,-189 -18,-191 -22,-184 -30,-170 -31,-156 -30,-142 -28,-156 -30,-170 -31,-184 -30,-191 -22,-178 -21,-165 -20,-152 -19,-144 -12,-137 -12,-129 -12,-130 -22,-138 -23,-123 -22,-132 -19,-123 -17,-133 -13,-122 -12,-111 -12,-117 -22,-105 -22,-117 -18,-107 -17,-119 -12,-108 -12,-96 -11,-85 -10,-87 -3,-85 -16,-91 -3,-90 -16,-95 -4,-94 -16,-99 -4,-98 -16,-103 -4,-102 -16,-107 -5,-106 -16,-111 -5,-110 -16,-115 -5,-114 -16,-119 -6,-118 -16,-123 -6,-122 -16,-127 -6,-126 -17,-131 -7,-131 -17,-135 -7,-135 -17,-139 -7,-139 -17,-143 -8,-143 -17,-146 -21,-140 -25,-127 -25,-113 -24,-100 -23,-86 -22,-81 -11,-68 -11,-54 -14,-42 -13,-29 -12,-41 -17,-52 -21,-62 -21,-73 -21,-84 -21,-77 -15,-64 -16,-51 -16,-42 -14,-32 -12,-33 0,-25 0,-17 0,-30 0,-44 0,-57 0,-47 0,-36 0,-25 0,-39 -4,-25 -5,-38 -8,-25 -8,-35 -12,-23 -12,-11 -12,1 -11,2 -18,2 -9,14 -8,26 -7,29 0,38 -3,51 -3,64 -4,77 -5,63 -4,49 -3,39 -2,30 1,18 1,6 1,7 9,8 17,10 26,11 35,-2 36,-4 26,-14 33,-9 44,-14 35,-17 32,-17 19,-18 6,-18 18,-8 23,-18 19,-28 15,-18 18,-18 32,-20 42,-22 51,-22 37,-29 45,-30 35,-21 46,-19 39,-17 32,-29 26,-30 41,-30 56,-29 41,-28 26,-27 11,-32 11,-39 17,-46 22,-39 16,-32 10,-35 16,-32 6,-32 20,-28 7,-29 20,-24 6,-27 20,-30 33,-33 24,-35 32,-35 23,-31 33,-29 27,-17 32,-13 34,-3 25,-6 11,-14 10,-22 9,-35 9,-47 9,-33 9,-19 9,-12 10,-4 10,-7 5,-14 3,-6 -2,-14 8,-3 1,-14 13,0 5,-13 17,2 8,-13 21,5 11,-12 25,8 14,-11 29,8 19,-9 32,6 24,-8 36,5 29,-7 39,4 35,-2 38,-13 48,-26 54,-40 60,-40 47,-40 35,-40 47,-40 59,-49 59,-49 44,-48 30,-48 15,-61 15,-62 26,-62 38,-63 49,-63 60,-63 49,-62 37,-61 26,-61 14,-63 25,-63 7,-60 26,-58 4,-58 26,-54 4,-56 23,-48 4,-56 27,-43 5,-52 24,-41 11,-55 29,-41 18,-53 29,-41 24,-56 31,-41 29,-56 34,-41 34,-56 38,-41 38,-56 41,-41 42,-56 45,-41 46,-56 49,-41 51,-56 53,-41 55,-57 57,-41 59,-46 59,-54 59,-63 59,-63 73,-64 87,-64 101,-64 116,-65 130,-65 144,-66 158,-66 172,-67 186,-79 192,-91 198,-103 204,-115 210,-127 216,-139 222,-151 228,-163 234,-175 240,-178 233,-177 247,-174 231,-173 245,-170 229,-169 243,-166 227,-165 241,-161 225,-161 239,-157 224,-157 237,-153 222,-153 235,-149 220,-149 233,-145 218,-145 231,-141 216,-141 229,-137 214,-137 227,-133 212,-133 225,-130 210,-129 223,-126 208,-125 221,-122 206,-121 219,-118 204,-117 217,-114 203,-113 216,-110 201,-109 214,-106 199,-105 212,-102 197,-101 210,-98 195,-97 208,-94 193,-93 206,-90 191,-89 204,-86 190,-85 202,-83 188,-81 200,-79 186,-77 198,-75 184,-73 196,-71 182,-70 194,-67 180,-66 192,-56 200,-64 204,-72 208,-70 199,-68 190,-70 199,-71 208,-81 213,-90 219,-100 224,-112 220,-115 227,-112 220,-105 222,-98 224,-105 229,-111 233,-117 228,-122 222,-116 227,-109 232,-117 222,-113 234,-119 241,-125 235,-132 228,-125 233,-117 238,-123 232,-129 226,-124 234,-118 241,-126 247,-133 239,-140 232,-132 240,-125 249,-137 253,-142 247,-148 241,-159 248,-153 254,-148 260,-153 254,-157 248,-169 253,-164 258,-177 247,-161 257,-172 245,-159 256,-168 243,-157 255,-163 241,-155 254,-159 239,-153 253,-154 237,-151 252,-149 235,-148 250,-144 235,-146 251,-140 238,-145 252,-137 242,-143 254,-134 246,-142 255,-131 250,-135 253,-146 261,-157 269,-166 279,-160 289,-149 281,-138 273,-127 265,-115 257,-104 249,-93 241,-82 233,-70 225,-59 217,-48 209,-45 205,-40 210,-49 204,-44 213,-54 205,-47 216,-57 207,-51 218,-61 209,-54 221,-64 212,-57 223,-68 214,-61 226,-71 217,-64 228,-74 219,-67 230,-78 221,-70 233,-81 224,-74 235,-85 226,-77 238,-88 229,-80 240,-91 231,-84 242,-95 233,-87 245,-98 236,-90 247,-102 238,-93 250,-105 240,-97 252,-108 243,-100 255,-112 245,-103 257,-115 248,-107 259,-119 250,-110 262,-122 252,-113 264,-125 255,-116 267,-129 257,-120 269,-132 259,-123 271,-135 262,-126 274,-139 264,-129 276,-142 267,-133 279,-146 269,-136 281,-149 271,-139 283,-152 274,-142 286,-156 276,-146 288,-160 279,-148 290,-164 282,-151 292,-160 288,-173 293,-185 298,-198 303,-211 308,-223 313,-236 319,-248 324,-261 329,-275 335,-288 341,-302 346,-316 352,-330 358,-342 362,-355 367,-367 371,-380 376,-393 381,-406 386,-418 391,-431 396,-444 401,-452 404,-460 407,-466 412,-472 417,-485 409,-497 401,-510 393,-522 385,-535 377,-547 369,-560 362,-572 354,-585 346,-597 338,-610 330,-623 322,-635 314,-648 306,-660 299,-673 291,-660 299,-648 306,-635 314,-623 322,-610 330,-598 338,-585 346,-573 354,-560 361,-548 369,-535 377,-523 385,-510 393,-498 401,-485 409,-472 416,-466 411,-459 406,-471 406,-483 398,-495 391,-507 383,-519 376,-531 368,-543 361,-555 353,-568 346,-580 338,-592 330,-604 323,-616 315,-628 308,-641 300,-653 292,-665 285,-677 277,-686 280,-695 278,-705 271,-714 265,-723 259,-732 252,-721 254,-710 255,-701 262,-693 269,-701 262,-710 254,-699 255,-689 255,-674 256,-659 257,-644 258,-629 259,-614 261,-599 262,-585 263,-570 264,-555 265,-540 266,-525 267,-510 268,-495 269,-480 270,-465 271,-450 272,-435 273,-421 274,-406 275,-391 276,-376 277,-361 278,-346 280,-331 281,-318 282,-304 283,-290 283,-277 284,-263 285,-250 286,-236 287,-222 288,-209 289,-195 290,-209 296,-223 301,-236 306,-250 312,-264 317,-277 322,-291 328,-305 333,-318 338,-332 344,-346 349,-359 354,-370 340,-386 340,-386 345,-383 335,-392 341,-380 341,-389 335,-386 345,-386 340,-371 341,-371 346,-367 336,-376 342,-365 342,-374 336,-371 346,-370 341,-359 354,-373 360,-387 365,-400 370,-414 376,-428 381,-442 387,-455 392,-469 397,-480 390,-492 383,-503 377,-514 370,-526 363,-518 357,-507 364,-496 370,-484 376,-473 376,-462 376,-451 376,-462 376,-473 376,-484 376,-475 382,-466 388,-477 381,-488 374,-500 367,-487 367,-475 367,-462 367,-450 367,-462 367,-475 367,-487 367,-499 367,-507 363,-515 359,-501 359,-487 359,-472 359,-458 359,-472 359,-486 359,-501 359,-515 359,-508 351,-508 357,-505 346,-514 352,-503 353,-512 346,-508 357,-508 351,-515 359,-519 357,-528 357,-536 352,-545 348,-539 344,-532 339,-518 340,-503 342,-489 343,-475 344,-460 345,-446 346,-432 347,-417 348,-416 344,-416 352,-420 343,-420 351,-424 343,-425 351,-428 343,-429 351,-432 343,-433 350,-436 342,-437 350,-441 342,-441 350,-445 342,-445 350,-449 341,-449 349,-453 341,-454 349,-457 341,-458 349,-461 341,-462 349,-465 340,-466 348,-470 340,-470 348,-474 340,-474 348,-478 339,-478 347,-482 339,-482 347,-486 339,-487 347,-490 339,-491 347,-494 338,-495 346,-498 338,-499 346,-502 338,-503 346,-506 337,-507 345,-511 337,-511 345,-515 337,-515 345,-519 337,-519 345,-523 336,-523 344,-527 336,-527 344,-531 336,-531 344,-533 339,-544 348,-554 342,-564 336,-574 329,-568 324,-562 319,-549 320,-535 321,-521 322,-507 323,-493 324,-479 325,-477 321,-478 329,-481 321,-482 329,-485 320,-486 328,-490 320,-490 328,-494 320,-494 328,-498 320,-498 328,-502 319,-503 327,-506 319,-507 327,-510 319,-511 327,-514 318,-515 326,-519 318,-519 326,-522 318,-523 326,-526 318,-527 325,-530 317,-531 325,-534 317,-535 325,-538 317,-539 325,-542 316,-543 324,-546 316,-547 324,-550 316,-551 324,-554 316,-555 324,-558 315,-559 323,-562 315,-563 323,-561 306,-548 307,-534 308,-521 309,-508 310,-495 311,-481 312,-468 313,-466 309,-466 317,-470 309,-470 317,-474 309,-475 317,-478 308,-479 316,-482 308,-483 316,-486 308,-487 316,-491 307,-491 315,-495 307,-495 315,-499 307,-499 315,-503 306,-504 314,-507 306,-508 314,-511 306,-512 314,-515 305,-516 313,-519 305,-520 313,-524 305,-524 313,-528 305,-528 313,-532 304,-532 312,-536 304,-536 312,-540 304,-540 312,-544 303,-544 311,-548 303,-548 311,-552 303,-552 311,-556 302,-556 310,-560 302,-568 305,-572 309,-572 301,-568 309,-568 301,-564 310,-564 302,-560 310,-560 302,-555 293,-544 294,-534 295,-523 295,-523 286,-509 286,-495 287,-480 288,-466 288,-452 289,-450 285,-451 293,-454 285,-455 293,-458 285,-459 293,-463 285,-463 293,-467 284,-467 292,-471 284,-471 292,-475 284,-475 292,-479 284,-480 292,-483 284,-484 292,-487 283,-487 291,-491 283,-491 291,-495 283,-495 291,-499 283,-499 291,-503 283,-503 291,-507 282,-507 290,-511 282,-511 290,-515 282,-515 290,-519 282,-519 290,-523 282,-523 290,-522 296,-508 297,-493 298,-478 300,-463 301,-448 302,-433 303,-418 305,-403 306,-399 302,-400 310,-403 302,-404 310,-407 301,-408 309,-411 301,-412 309,-416 301,-416 309,-420 300,-420 308,-424 300,-425 308,-428 300,-429 308,-432 299,-433 307,-436 299,-437 307,-440 299,-441 307,-445 298,-445 306,-449 298,-449 306,-453 298,-453 306,-457 297,-458 305,-461 297,-462 305,-465 297,-466 305,-469 296,-470 304,-473 296,-474 304,-478 296,-478 303,-482 295,-482 303,-486 295,-487 303,-490 294,-491 302,-494 294,-495 302,-498 294,-499 302,-502 293,-503 301,-507 293,-507 301,-511 293,-511 301,-515 292,-515 300,-519 292,-520 300,-523 292,-524 300,-527 291,-528 299,-531 291,-532 299,-535 291,-536 299,-539 290,-540 298,-543 290,-544 298,-547 290,-548 298,-551 289,-552 297,-556 289,-556 297,-562 309,-562 319,-574 329,-586 322,-597 314,-609 307,-621 299,-633 291,-645 284,-654 282,-664 274,-675 266,-686 258,-676 272,-673 257,-673 275,-669 260,-669 277,-666 263,-666 279,-662 266,-662 281,-659 269,-659 283,-655 272,-655 286,-652 275,-652 288,-647 273,-648 290,-643 275,-645 292,-639 277,-641 294,-636 280,-638 297,-632 282,-634 299,-629 284,-631 301,-625 286,-627 303,-621 289,-624 305,-618 291,-621 307,-614 293,-617 309,-611 295,-614 312,-607 297,-610 314,-604 300,-607 316,-600 302,-604 318,-597 304,-600 320,-593 306,-597 322,-590 308,-593 324,-586 311,-590 326,-583 313,-587 329,-579 315,-583 331,-576 317,-580 333,-572 319,-577 335,-569 322,-573 337,-565 324,-570 339,-562 326,-566 341,-558 328,-563 343,-554 330,-560 345,-551 332,-557 347,-548 334,-553 349,-544 337,-550 351,-541 339,-547 353,-538 341,-544 355,-534 343,-540 357,-531 345,-537 360,-527 347,-534 362,-524 349,-530 364,-521 351,-527 366,-518 353,-527 367,-523 360,-524 369,-520 362,-520 371,-516 364,-517 373,-513 366,-513 375,-509 368,-510 377,-505 371,-506 380,-502 373,-503 382,-498 375,-499 384,-495 377,-496 386,-491 379,-492 388,-488 381,-489 390,-484 383,-485 392,-481 386,-482 394,-477 388,-478 397,-474 390,-474 399,-471 391,-470 402,-469 393,-465 400,-466 392,-462 399,-463 391,-458 397,-461 390,-454 396,-457 388,-453 396,-457 386,-449 395,-454 385,-445 393,-450 383,-441 392,-446 381,-438 390,-442 379,-434 389,-439 378,-430 387,-435 376,-426 385,-431 375,-422 384,-427 373,-418 382,-423 372,-414 381,-419 370,-410 379,-416 369,-406 378,-412 367,-402 376,-408 366,-398 375,-404 365,-394 373,-400 363,-390 371,-396 362,-386 370,-392 360,-382 368,-388 359,-378 367,-384 357,-374 365,-380 356,-369 363,-376 354,-365 362,-372 352,-361 360,-368 351,-357 359,-365 349,-353 357,-361 348,-349 355,-357 346,-345 354,-353 344,-341 352,-349 343,-337 351,-345 341,-332 349,-340 340,-328 347,-336 338,-324 346,-332 337,-320 344,-328 335,-315 342,-324 333,-311 341,-320 332,-307 339,-315 330,-302 337,-311 329,-298 335,-307 327,-293 334,-302 326,-289 332,-298 324,-284 330,-294 323,-280 328,-289 321,-275 326,-284 319,-270 324,-280 318,-266 323,-275 316,-261 321,-270 314,-256 319,-265 313,-251 317,-261 311,-246 315,-256 309,-240 313,-250 307,-235 311,-245 305,-230 308,-240 303,-224 306,-235 301,-219 304,-229 299,-213 302,-224 297,-207 300,-218 295,-202 297,-213 293,-197 295,-207 290,-191 293,-202 288,-198 290,-188 290,-178 290,-175 284,-176 295,-179 284,-180 295,-183 283,-184 294,-187 283,-188 294,-191 283,-192 294,-195 282,-196 293,-200 282,-200 293,-204 282,-204 293,-208 282,-209 293,-212 281,-213 292,-216 281,-217 292,-220 281,-221 292,-224 281,-225 292,-229 280,-229 291,-233 280,-233 291,-237 280,-238 291,-241 279,-242 290,-245 279,-246 290,-249 279,-250 290,-253 279,-254 290,-258 278,-258 289,-262 278,-262 289,-266 278,-267 289,-270 278,-271 289,-274 277,-275 288,-278 277,-279 288,-282 277,-283 288,-287 276,-287 287,-291 276,-291 287,-295 276,-295 287,-299 276,-300 287,-303 275,-304 286,-307 275,-308 286,-311 275,-312 286,-315 275,-316 286,-320 274,-320 285,-324 274,-324 285,-328 274,-329 285,-332 273,-333 284,-336 273,-337 284,-340 273,-341 284,-344 273,-345 284,-349 272,-349 283,-353 272,-354 283,-357 272,-358 283,-361 272,-362 282,-365 271,-366 282,-369 271,-370 282,-373 271,-374 282,-378 270,-378 281,-382 270,-382 281,-386 270,-387 281,-390 270,-391 281,-394 269,-395 280,-398 269,-399 280,-402 269,-403 280,-407 269,-407 279,-411 268,-411 279,-415 268,-416 279,-419 268,-420 279,-423 267,-424 278,-427 267,-428 278,-431 267,-432 278,-435 267,-436 278,-440 266,-440 277,-444 266,-445 277,-448 266,-449 277,-452 266,-453 276,-456 265,-457 276,-460 265,-461 276,-464 265,-465 276,-469 264,-469 275,-473 264,-473 275,-477 264,-478 275,-481 264,-482 275,-485 263,-486 274,-489 263,-490 274,-493 263,-494 274,-498 262,-498 273,-502 262,-502 273,-506 262,-507 273,-510 262,-511 273,-514 261,-515 272,-518 261,-519 272,-522 261,-523 272,-526 261,-527 272,-531 260,-531 271,-535 260,-535 271,-539 260,-540 271,-543 259,-544 270,-547 259,-548 270,-551 259,-552 270,-555 259,-556 270,-560 258,-560 269,-564 258,-564 269,-568 258,-569 269,-572 258,-573 269,-576 257,-577 268,-580 257,-581 268,-584 257,-585 268,-589 256,-589 267,-593 256,-593 267,-597 256,-598 267,-601 256,-602 267,-605 255,-606 266,-609 255,-610 266,-613 255,-614 266,-617 255,-618 265,-622 254,-622 265,-626 254,-626 265,-630 254,-631 265,-634 253,-635 264,-638 253,-639 264,-643 253,-643 264,-647 253,-648 264,-651 252,-652 263,-655 252,-656 263,-660 252,-660 263,-664 251,-665 262,-668 251,-669 262,-672 251,-673 262,-676 273,-672 250,-679 271,-676 250,-683 268,-680 250,-687 266,-684 250,-690 264,-689 250,-694 262,-693 251,-698 259,-697 251,-698 258,-701 250,-702 258,-705 250,-706 258,-709 250,-710 258,-714 249,-714 257,-718 249,-718 257,-722 249,-722 257,-726 249,-726 257,-730 248,-731 256,-734 256,-730 250,-731 259,-726 252,-727 261,-723 255,-724 264,-719 257,-720 266,-716 259,-717 268,-712 262,-713 271,-709 264,-710 273,-705 267,-706 276,-702 269,-702 278,-698 271,-699 280,-694 274,-699 281,-694 273,-694 283,-690 274,-689 284,-687 273,-684 285,-684 273,-680 284,-681 272,-675 282,-678 271,-675 278,-663 285,-651 293,-639 300,-627 308,-615 315,-603 323,-591 330,-579 338,-567 345,-555 353,-543 361,-531 368,-519 376,-507 383,-495 391,-483 398,-471 406,-461 413,-470 404,-457 411,-466 403,-453 409,-462 401,-448 408,-457 399,-444 406,-453 398,-440 404,-449 396,-435 403,-445 394,-431 401,-440 393,-426 399,-436 391,-422 398,-431 389,-418 396,-427 388,-413 395,-423 386,-409 393,-419 384,-405 391,-414 383,-399 391,-410 381,-395 390,-405 379,-391 388,-401 378,-387 386,-397 376,-383 385,-393 374,-379 383,-389 373,-375 381,-385 371,-371 379,-381 370,-367 377,-377 368,-363 375,-373 367,-359 373,-368 365,-355 372,-364 363,-350 371,-360 361,-346 369,-355 360,-341 368,-351 358,-337 367,-347 356,-333 365,-343 355,-328 364,-339 353,-324 363,-335 351,-320 361,-331 350,-316 360,-326 348,-312 358,-322 347,-307 357,-318 345,-303 355,-314 343,-299 354,-310 342,-295 352,-306 340,-291 350,-302 339,-287 349,-298 337,-283 347,-294 335,-279 345,-290 334,-275 343,-286 332,-271 342,-282 330,-267 340,-278 329,-263 338,-274 327,-259 336,-270 326,-255 334,-265 324,-251 333,-261 322,-247 331,-257 321,-243 329,-253 319,-239 327,-249 318,-235 325,-245 316,-231 324,-240 314,-226 322,-236 313,-222 320,-232 311,-218 318,-228 309,-214 317,-223 308,-209 315,-219 306,-205 313,-215 304,-201 311,-210 303,-196 310,-206 301,-192 308,-202 299,-187 306,-197 298,-183 304,-193 296,-178 302,-188 294,-174 301,-184 293,-169 299,-179 291,-165 297,-178 286,-160 295,-175 284,-155 293,-169 283,-151 292,-163 283,-166 279,-156 269,-160 265,-171 273,-180 272,-188 272,-191 275,-195 276,-202 269,-197 275,-190 275,-187 270,-187 265,-200 259,-187 265,-183 262,-181 255,-184 262,-187 264,-187 271,-187 277,-187 267,-183 277,-182 267,-179 277,-178 266,-175 277,-174 266,-171 277,-169 266,-172 272,-162 267,-170 259,-179 251,-179 241,-179 230,-168 225,-156 220,-145 214,-133 209,-122 204,-111 198,-122 204,-133 209,-145 214,-156 219,-168 225,-179 230,-180 222,-167 217,-154 212,-141 206,-128 201,-115 196,-101 190,-93 184,-84 178,-98 184,-112 189,-125 195,-139 200,-153 206,-167 211,-180 217,-180 229,-185 226,-177 222,-185 230,-176 226,-185 235,-175 231,-186 239,-175 236,-186 243,-175 241,-186 247,-175 245,-186 250,-174 250,-187 254,-174 255,-181 254,-189 255,-201 260,-204 271,-213 271,-212 262,-212 254,-218 253,-213 254,-213 262,-213 270,-218 263,-223 256,-218 264,-213 272,-221 272,-228 272,-231 265,-218 263,-231 265,-237 258,-243 251,-253 251,-263 251,-262 259,-262 267,-253 267,-251 257,-241 260,-251 257,-254 267,-253 273,-253 262,-256 273,-257 261,-260 273,-261 261,-264 273,-265 261,-264 268,-275 268,-286 268,-275 268,-276 259,-284 259,-292 259,-281 259,-270 258,-276 259,-275 269,-263 269,-263 260,-263 252,-268 252,-272 248,-282 250,-288 260,-299 262,-306 267,-310 268,-318 259,-312 268,-303 266,-293 258,-301 253,-314 252,-319 261,-322 261,-324 251,-326 242,-324 251,-322 261,-329 256,-336 251,-326 259,-332 264,-345 264,-351 262,-351 253,-359 252,-374 252,-359 251,-363 243,-350 239,-362 242,-376 248,-363 243,-359 252,-351 252,-352 262,-362 261,-373 261,-377 254,-391 252,-405 250,-392 252,-393 242,-392 252,-381 253,-384 240,-393 242,-402 241,-405 246,-403 241,-393 242,-383 240,-380 253,-389 261,-402 259,-405 249,-407 240,-415 238,-424 242,-416 239,-406 240,-405 250,-415 249,-425 247,-415 249,-405 251,-415 258,-422 257,-429 248,-440 248,-452 248,-463 247,-470 242,-477 238,-483 246,-494 245,-504 244,-514 242,-501 244,-488 245,-490 237,-496 234,-503 236,-512 243,-521 233,-528 235,-534 239,-527 243,-520 247,-527 243,-535 238,-541 247,-531 251,-517 251,-530 251,-541 246,-540 237,-549 231,-556 236,-548 232,-539 237,-544 245,-550 249,-559 248,-568 247,-560 248,-552 249,-544 246,-551 241,-558 236,-566 233,-575 230,-568 233,-561 237,-567 244,-573 240,-579 235,-590 239,-595 231,-604 229,-595 231,-592 239,-604 248,-616 243,-604 247,-594 243,-602 237,-616 239,-616 231,-607 231,-617 231,-617 239,-626 234,-634 235,-643 235,-634 235,-626 235,-625 242,-631 245,-642 244,-643 237,-649 231,-661 226,-650 230,-643 236,-650 244,-661 244,-672 243,-659 244,-647 244,-647 238,-660 232,-667 235,-675 238,-687 232,-680 223,-673 232,-680 223,-688 232,-694 233,-692 245,-693 234,-704 237,-704 226,-705 239,-716 240,-727 240,-729 244,-727 248,-733 243,-726 246,-731 240,-724 244,-728 236,-721 244,-724 236,-718 244,-719 236,-715 244,-715 236,-711 244,-711 236,-710 244,-711 236,-706 244,-707 233,-702 244,-702 230,-698 244,-698 228,-694 240,-694 228,-690 240,-690 228,-686 238,-686 228,-682 235,-682 228,-682 234,-673 239,-676 243,-685 240,-684 247,-681 237,-679 247,-677 233,-675 247,-674 230,-671 247,-670 229,-667 247,-666 229,-664 241,-662 229,-661 238,-660 232,-648 237,-657 247,-656 237,-652 247,-651 233,-648 247,-647 230,-644 247,-643 230,-640 247,-640 229,-636 241,-637 229,-639 244,-630 245,-624 243,-625 232,-629 229,-619 230,-632 233,-618 232,-632 238,-618 234,-632 243,-617 236,-629 246,-615 236,-624 247,-615 238,-618 247,-613 238,-613 248,-611 236,-601 237,-597 241,-600 236,-602 250,-596 233,-597 250,-592 231,-593 250,-589 232,-589 250,-585 232,-584 250,-582 232,-580 250,-581 247,-567 247,-580 247,-581 235,-573 239,-566 243,-573 246,-560 247,-573 241,-558 244,-570 237,-556 241,-565 234,-553 238,-545 245,-549 252,-549 239,-546 251,-545 238,-542 251,-540 234,-539 251,-536 234,-535 251,-531 234,-531 237,-525 234,-520 233,-513 241,-524 254,-525 242,-521 254,-522 238,-517 254,-518 237,-513 254,-514 237,-510 254,-510 237,-506 254,-507 237,-507 254,-499 254,-490 254,-498 254,-507 253,-507 246,-507 238,-504 235,-497 234,-490 237,-488 248,-499 256,-499 243,-494 256,-495 239,-490 256,-491 238,-485 256,-487 237,-481 256,-484 237,-476 256,-480 236,-473 240,-463 247,-468 258,-471 236,-464 258,-468 234,-461 258,-464 237,-457 258,-460 237,-453 258,-456 237,-450 258,-452 237,-446 258,-448 237,-442 258,-444 237,-439 258,-440 237,-435 258,-437 238,-431 258,-433 238,-427 258,-429 238,-424 258,-425 238,-423 256,-415 258,-407 253,-413 246,-411 261,-409 243,-406 261,-406 242,-402 261,-402 241,-397 261,-389 260,-381 254,-387 264,-386 246,-383 264,-382 244,-379 264,-378 243,-374 264,-374 243,-370 264,-371 246,-370 261,-361 261,-352 261,-357 247,-353 254,-345 254,-338 251,-335 257,-334 244,-338 258,-338 243,-342 260,-342 243,-346 264,-346 243,-349 264,-350 243,-353 264,-354 244,-357 264,-357 247,-345 264,-331 264,-325 260,-329 266,-329 253,-325 267,-325 252,-320 267,-321 251,-316 267,-317 243,-313 264,-313 243,-309 259,-310 243,-305 259,-306 243,-302 269,-303 243,-298 269,-300 242,-294 270,-296 245,-290 271,-293 246,-287 271,-289 246,-284 272,-284 248,-285 254,-282 250,-270 248,-266 253,-264 251,-253 251,-243 251,-238 257,-243 274,-246 250,-239 274,-242 250,-235 274,-238 250,-231 275,-234 250,-226 275,-229 250,-229 255,-218 255,-229 253,-227 263,-226 272,-213 272,-205 271,-196 273,-208 271,-195 269,-208 267,-194 266,-208 263,-193 263,-208 260,-192 260,-208 256,-200 258,-189 254,-177 255,-183 265,-180 248,-179 266,-176 249,-176 266,-172 249,-172 266,-169 251,-169 269,-165 254,-166 271,-162 257,-162 273,-160 257,-156 275,-158 257,-152 272,-156 259,-148 269,-155 256,-145 266,-152 255,-141 263,-148 254,-142 264,-148 254,-138 261,-144 252,-135 259,-141 250,-131 257,-137 248,-128 254,-134 245,-124 252,-131 242,-121 249,-128 239,-117 247,-125 236,-114 245,-122 233,-111 242,-120 230,-107 240,-117 227,-104 238,-115 223,-101 236,-113 219,-97 233,-110 217,-94 231,-107 215,-91 229,-103 213,-88 227,-100 211,-85 224,-96 210,-81 222,-92 208,-78 219,-89 206,-75 217,-85 204,-71 215,-81 203,-68 213,-77 201,-64 211,-74 199,-61 209,-69 199,-57 206,-64 198,-53 204,-60 197,-56 200,-46 198,-56 201,-66 193,-67 182,-66 168,-66 154,-65 141,-65 127,-64 113,-64 100,-64 86,-63 72,-63 59,-62 65,-62 54,-58 65,-58 54,-54 65,-54 54,-49 65,-50 54,-45 65,-46 54,-41 64,-42 53,-37 64,-38 53,-37 58,-26 55,-15 50,-7 44,-1 37,11 34,22 37,34 36,28 27,14 27,26 27,23 17,21 7,22 14,13 22,23 14,23 22,23 30,24 16,28 30,29 19,30 9,39 6,39 20,39 34,40 20,41 5,29 10,27 20,25 30,25 20,25 11,28 19,30 27,34 38,44 43,44 52,57 50,57 38,57 26,57 14,51 13,51 21,51 29,56 29,57 39,57 50,67 47,67 33,67 18,67 27,57 25,57 35,67 36,67 46,72 49,72 35,73 21,73 35,73 50,82 48,81 40,79 32,81 21,80 33,81 41,82 49,86 41,91 32,98 36,105 40,101 48,98 56,104 42,104 33,104 24,104 32,104 40,98 36,91 32,91 22,105 22,115 17,123 7,133 4,122 6,110 3,99 7,86 8,75 9,64 9,49 7,57 14,45 3,63 15,53 5,68 15,60 5,73 16,66 6,77 16,71 6,81 16,76 5,85 16,81 5,89 15,86 4,92 14,91 4,96 13,95 3,99 11,100 2,104 9,106 1,110 3,124 6,119 4,128 10,117 7,126 13,115 10,123 17,113 12,120 21,110 14,116 23,107 15,112 25,104 16,107 27,101 17,102 28,98 17,98 28,93 18,99 25,88 19,99 30,86 23,98 33,85 28,97 37,79 29,97 40,75 31,96 43,75 36,95 46,75 41,95 48,74 46,94 50,88 49,96 58,106 57,111 54,109 50,111 58,107 52,107 61,104 53,103 62,101 53,98 62,98 52,94 63,95 48,89 64,91 57,95 47,88 56,90 46,84 55,86 44,81 55,81 44,78 52,76 43,79 48,73 49,67 46,55 50,44 52,44 42,51 39,42 52,48 37,39 49,45 35,36 46,45 31,33 43,44 27,29 41,40 26,26 39,20 36,12 34,19 33,5 34,19 29,5 30,20 25,4 25,20 21,4 21,18 17,4 17,15 12,4 13,13 8,3 8,8 8,7 0,18 0,30 0,26 -7,14 -8,2 -10,7 -4,6 -13,3 -4,2 -19,-1 -4,-2 -18,-6 -4,-6 -17,-10 -4,-10 -18,-14 -4,-14 -19,-18 -4,-18 -20,-22 -4,-22 -21,-26 -4,-26 -23,-30 -4,-30 -24,-34 -5,-34 -25,-38 -5,-38 -26,-42 -5,-42 -27,-46 -5,-46 -28,-50 -6,-49 -29,-53 -6,-53 -29,-57 -5,-57 -29,-61 -3,-60 -29,-65 -2,-64 -29,-68 -2,-67 -28,-72 -2,-71 -28,-76 -2,-75 -28,-80 -2,-78 -28,-83 -3,-82 -28,-87 -3,-85 -28,-86 -17,-85 -29,-91 -18,-89 -29,-95 -18,-93 -29,-99 -18,-98 -29,-103 -18,-102 -30,-107 -18,-106 -30,-111 -18,-110 -30,-115 -18,-114 -30,-119 -18,-118 -30,-123 -18,-122 -31,-126 -18,-126 -31,-130 -19,-130 -31,-134 -19,-134 -31,-138 -19,-138 -31,-142 -14,-142 -32,-142 -8,-142 -27,-146 -9,-146 -27,-150 -10,-150 -27,-154 -11,-154 -27,-158 -12,-158 -27,-162 -12,-162 -27,-166 -13,-166 -27,-171 -13,-170 -28,-175 -13,-174 -28,-179 -13,-178 -28,-183 -13,-182 -29,-187 -13,-186 -30,-191 -14,-190 -31,-195 -14,-194 -31,-199 -14,-198 -31,-203 -14,-202 -31,-207 -14,-206 -31,-211 -14,-210 -31,-215 -14,-214 -31,-220 -14,-218 -31,-224 -14,-222 -31,-228 -14,-227 -31,-232 -14,-231 -31,-236 -14,-235 -31,-240 -14,-239 -31,-244 -14,-243 -31,-248 -14,-247 -31,-253 -14,-251 -31,-257 -14,-255 -30,-261 -14,-259 -30,-265 -14,-263 -30,-269 -14,-267 -30,-273 -14,-271 -30,-277 -14,-275 -30,-281 -14,-280 -30,-286 -14,-284 -30,-290 -14,-288 -30,-294 -14,-292 -30,-298 -14,-296 -30,-302 -14,-300 -30,-306 -14,-304 -28,-310 -14,-309 -27,-315 -14,-313 -27,-319 -14,-317 -27,-323 -14,-321 -27,-327 -14,-325 -27,-332 -14,-329 -27,-336 -14,-333 -27,-340 -15,-338 -27,-344 -15,-342 -27,-348 -15,-346 -27,-353 -15,-350 -27,-357 -15,-354 -27,-361 -15,-358 -27,-365 -15,-363 -27,-370 -15,-367 -27,-374 -15,-371 -27,-379 -15,-376 -27,-383 -15,-380 -27,-388 -15,-385 -27,-392 -16,-389 -28,-397 -16,-394 -28,-401 -17,-398 -28,-405 -19,-402 -29,-409 -21,-407 -29,-414 -22,-411 -30,-408 -21,-408 -26,-408 -21" />
  </g>
</svg>