<?xml version="1.0" encoding="UTF-8"?>
<svg  name="Sew" viewBox="-3.03664921465969 -14.6596858638743 200 16.1256544502618" height="200px" width="700px" preserveAspectRatio="xMidYMid meet" showgrid="false" version="1.1" borderopacity="1.0" bordercolor="#666666" pagecolor="#ffffff" xmlns="http://www.w3.org/2000/svg" xmlns:svg="http://www.w3.org/2000/svg">
    <g transform="scale(0.12,0.12)">
        <polyline points="0 0,0 0,1 4,-2 -2,2 -2,-3 -6,2 -6,-4 -9,2 -10,-5 -13,2 -13,-6 -16,2 -17,-7 -19,5 -21,-8 -21,6 -25,-8 -22,6 -28,-2 -27,-9 -35,-14 -43,-7 -33,-15 -43,-12 -41,-14 -38,-8 -39,-12 -34,-5 -37,-11 -30,-1 -35,-10 -27,3 -32,-9 -23,7 -30,-8 -22,6 -26,3 -32,1 -18,11 -20,28 -14,45 -9,63 -8,81 -11,98 -18,55 -37,47 -21,31 -15,11 -20,6 -21,23 -20,42 -4,44 -26,86 -7,77 -27,116 -35,86 -36,50 -38,106 -18,48 -30,63 -3,36 -21,23 -10,7 -24,1 -17,3 -33,3 -15,7 -31,6 -13,10 -29,10 -10,14 -28,13 -8,17 -27,17 -6,20 -27,21 -4,23 -26,25 -3,25 -26,29 -1,27 -26,33 0,29 -26,38 1,32 -22,42 2,33 -27,47 3,34 -28,51 3,36 -28,56 4,43 -18,61 3,38 -29,66 3,48 -19,71 3,40 -31,76 2,41 -32,81 1,41 -32,85 0,50 -27,90 -2,42 -34,95 -4,80 -12,99 -6,42 -35,104 -8,66 -25,108 -11" fill="none" stroke="rgb(10,85,163)" id="needle_0"/>
        <polyline points="54 -35" fill="none" stroke="rgb(10,85,163)" id="needle_1"/>
        <polyline points="96 -31,122 -32" fill="none" stroke="rgb(10,85,163)" id="needle_2"/>
        <polyline points="56 -40,70 -40,83 -40,82 -45,73 -52,58 -61,45 -70,31 -78,21 -86,19 -91,19 -95,21 -100,25 -104,29 -107,35 -110,47 -112,60 -111,73 -107,83 -101,87 -103,90 -106,89 -123,89 -113,89 -122,88 -126,91 -120,86 -120,92 -117,85 -117,93 -113,85 -113,94 -109,84 -109,95 -106,80 -105,96 -104,80 -102,96 -103,80 -98,89 -98,96 -89,103 -80,96 -89,92 -94,96 -89,103 -79,100 -82,102 -84,97 -83,101 -88,94 -85,100 -92,90 -88,98 -96,87 -91,97 -99,83 -93,97 -101,79 -96,96 -102,79 -100,83 -94,85 -108,76 -106,59 -112,41 -117,23 -118,6 -113,-6 -101,-3 -84,11 -73,37 -68,49 -56,108 -49,93 -58,75 -64,59 -71,46 -83,47 -101,76 -106,80 -104,64 -106,47 -121,51 -98,3 -117,51 -92,21 -89,-10 -85,20 -87,51 -89,26 -62,61 -76,49 -46,101 -60,50 -40,80 -42,116 -45,75 -51,79 -68,44 -54,52 -84,6 -70,51 -91,22 -97,-11 -103,19 -99,51 -94,25 -123,55 -103,65 -114,80 -102,85 -109,83 -93,83 -110,79 -95,81 -112,75 -97,78 -114,72 -99,74 -116,69 -99,71 -118,65 -100,67 -120,65 -107,63 -122,62 -99,59 -124,61 -99,55 -125,60 -98,50 -127,58 -101,45 -128,58 -96,40 -129,52 -107,35 -129,58 -95,30 -129,48 -106,25 -129,57 -93,20 -129,57 -92,15 -128,57 -92,10 -127,48 -98,5 -125,57 -91,1 -123,16 -114,-4 -121,57 -91,-7 -118,32 -102,-11 -115" fill="none" stroke="rgb(10,85,163)" id="needle_3"/>
        <polyline points="46 -93,-18 -100" fill="none" stroke="rgb(10,85,163)" id="needle_4"/>
        <polyline points="5 -95,-19 -92" fill="none" stroke="rgb(10,85,163)" id="needle_5"/>
        <polyline points="32 -90,-17 -84" fill="none" stroke="rgb(10,85,163)" id="needle_6"/>
        <polyline points="44 -88,-5 -70,57 -92,-1 -67,15 -74,3 -65,57 -91,7 -63,38 -80,12 -61,57 -90,17 -59,57 -90,21 -57,58 -89,26 -56,47 -77,30 -54,59 -86,34 -53,60 -85,37 -51,62 -83,40 -49,65 -81,41 -47,69 -79,42 -45,73 -77,43 -44,77 -75,43 -42,82 -74,52 -47,86 -72,43 -41,91 -71,81 -61,96 -69,43 -40,101 -67,67 -49,105 -64,43 -40" fill="none" stroke="rgb(10,85,163)" id="needle_7"/>
        <polyline points="55 -41" fill="none" stroke="rgb(10,85,163)" id="needle_8"/>
        <polyline points="97 -43,123 -44" fill="none" stroke="rgb(10,85,163)" id="needle_9"/>
        <polyline points="123 -41" fill="none" stroke="rgb(10,85,163)" id="needle_10"/>
        <polyline points="90 -120,90 -120,93 -108,90 -120,93 -108,90 -120,93 -108,97 -97,101 -85,103 -80,93 -87,83 -94,72 -99,60 -99,57 -89,64 -80,76 -75,88 -71,99 -67,110 -61,119 -52,122 -41,120 -29,114 -18,104 -10,94 -4,82 0,70 2,57 3,45 2,33 -1,21 -5,10 -11,1 -16,1 -4,1 3,-3 -9,-7 -21,-11 -32,-14 -43,-5 -36,6 -30,18 -26,30 -26,41 -31,44 -43,36 -53,25 -57,13 -61,2 -66,-8 -73,-16 -83,-18 -95,-15 -107,-7 -117,3 -123,15 -127,27 -129,40 -128,52 -125,63 -121,74 -115,84 -108,87 -120,85 -108,75 -115,64 -121,52 -125,40 -128,27 -129,15 -127,3 -123,-7 -117,-15 -107,-18 -95,-16 -83,-8 -73,2 -66,13 -61,25 -57,36 -53,44 -43,41 -31,30 -26,18 -26,6 -30,-5 -36,-14 -43,-10 -31,-7 -20,-3 -8,1 3,1 -9,3 -17,13 -10,24 -4,35 0,48 2,60 3,73 2,85 -1,96 -5,107 -12,116 -20,121 -32,122 -44,117 -55,107 -63,96 -68,85 -72,73 -76,62 -81,56 -92,62 -100,74 -99,85 -93,95 -86,103 -80,99 -91,95 -103,91 -115,90 -120,100 -125,77 -124,100 -123,78 -121,101 -120,79 -117,102 -117,80 -113,103 -115,81 -110,104 -112,83 -106,105 -109,84 -102,106 -106,85 -99,107 -102,86 -96,108 -99,87 -92,109 -97,88 -88,109 -94,89 -85,110 -92,91 -81,111 -89,92 -77,112 -86,90 -75,109 -89,88 -77,105 -91,86 -79,102 -94,84 -80,99 -97,82 -82,96 -99,80 -83,93 -101,77 -85,89 -103,75 -86,85 -105,72 -87,82 -107,70 -89,78 -109,68 -89,75 -110,68 -94,71 -111,66 -90,67 -112,65 -90,63 -112,65 -90,60 -111,62 -97,56 -110,66 -90,53 -108,67 -91,49 -104,67 -91,47 -100,64 -92,46 -96,67 -91,45 -93,67 -92,46 -88,67 -92,47 -84,61 -88,49 -80,68 -91,51 -76,68 -91,54 -74,70 -90,58 -71,72 -88,62 -69,74 -87,66 -67,77 -86,70 -65,80 -85,73 -64,84 -84,77 -63,87 -83,80 -62,91 -81,84 -61,95 -80,87 -60,99 -79,91 -58,102 -77,94 -57,106 -76,97 -56,109 -74,99 -54,113 -72,102 -53,116 -70,104 -52,119 -68,106 -51,122 -65,110 -52,125 -63,108 -49,127 -59,109 -47,129 -56,110 -46,131 -52,117 -47,132 -49,111 -43,133 -44,111 -42,133 -40,111 -40,133 -36,111 -38,132 -32,111 -36,132 -28,110 -34,130 -24,110 -32,129 -21,109 -30,127 -17,108 -29,125 -14,107 -27,122 -10,105 -25,119 -8,104 -23,116 -5,102 -22,113 -2,100 -20,109 0,98 -18,106 2,95 -17,103 4,93 -16,99 6,90 -15,95 7,87 -13,92 8,85 -12,88 10,82 -12,83 11,78 -11,80 12,75 -10,76 12,72 -9,72 13,69 -9,68 13,66 -9,64 13,62 -8,60 14,59 -8,56 14,56 -8,52 14,53 -8,48 13,50 -9,44 13,47 -9,41 12,44 -10,38 12,40 -11,35 12,37 -13,33 12,33 -14,30 12,28 -16,27 11,24 -19,25 11,20 -21,22 10,14 -24,19 9,9 -27,17 8,3 -31,14 6,-3 -35,11 4,-9 -39,8 -3,-10 -31,12 2,-10 -24,4 -6,-10 -18,12 -1,-10 -13,12 -2,-10 -9,12 -3,-10 -3,12 -1,-10 1,12 1,-11 1,11 -3,-12 -2,9 -7,-13 -5,8 -11,-15 -9,7 -15,-16 -12,5 -19,-17 -16,4 -23,-18 -19,3 -26,-19 -22,2 -30,-20 -25,0 -34,-21 -28,-1 -38,-22 -31,-2 -42,-23 -34,-4 -46,-24 -36,-2 -47,-20 -33,0 -46,-17 -31,2 -44,-13 -28,4 -43,-10 -26,6 -42,-7 -24,8 -41,-3 -22,10 -40,1 -20,13 -39,4 -19,15 -38,8 -17,18 -37,12 -16,20 -37,16 -15,22 -36,20 -15,25 -36,24 -14,27 -36,28 -14,29 -36,32 -15,31 -34,36 -15,32 -37,40 -17,36 -31,43 -18,33 -38,46 -20,38 -33,49 -23,33 -38,52 -26,33 -38,53 -30,33 -39,55 -34,37 -40,55 -39,33 -40,55 -43,41 -43,55 -46,33 -41,53 -50,40 -46,51 -54,33 -42,48 -57,32 -42,45 -60,31 -43,41 -62,29 -44,37 -64,26 -45,34 -66,23 -46,30 -67,20 -47,26 -68,16 -48,23 -69,12 -50,19 -70,8 -51,16 -72,5 -53,14 -73,1 -54,11 -74,-2 -56,8 -75,-6 -58,6 -77,-9 -60,3 -78,-12 -63,1 -80,-15 -65,0 -81,-18 -67,-2 -83,-20 -70,-3 -84,-23 -74,-4 -86,-25 -77,-8 -86,-26 -80,-6 -89,-28 -84,-6 -90,-29 -89,-7 -92,-29 -93,-11 -94,-29 -97,-7 -95,-28 -101,-7 -97,-28 -105,-6 -99,-26 -109,-9 -102,-25 -112,-5 -102,-23 -116,-4 -104,-20 -119,-3 -105,-18 -122,-2 -107,-14 -125,0 -108,-11 -128,2 -110,-8 -130,4 -111,-4 -132,6 -113,0 -134,8 -114,4 -135,11 -115,7 -137,13 -115,11 -138,16 -116,15 -138,19 -117,19 -139,22 -117,23 -139,25 -117,28 -140,28 -118,31 -140,31 -118,35 -139,34 -117,39 -139,37 -117,43 -139,40 -117,47 -138,43 -116,51 -137,46 -116,55 -136,49 -115,58 -135,52 -113,61 -135,56 -112,63 -134,59 -110,65 -133,63 -108,67 -132,67 -106,69 -131,72 -103,71 -130,76 -100,73 -129,81 -97,76 -127,87 -93,80 -119,92 -90,77 -125,94 -98,84 -117,95 -104,77 -123,96 -109,84 -119,97 -112,76 -122,98 -118,76 -123,99 -121,77 -125,99 -126,87 -125,99 -126,99 -126" fill="none" stroke="rgb(11,61,145)" id="needle_11"/>
        <polyline points="189 -67,189 -67,184 -56,189 -67,184 -56,189 -67,181 -52,163 -43,180 -39,197 -41,212 -51,213 -69,196 -68,177 -66,219 -79,177 -66,222 -76,177 -66,224 -72,186 -66,226 -68,177 -66,227 -64,213 -62,227 -61,177 -66,227 -57,196 -61,226 -53,177 -66,224 -49,177 -66,222 -45,177 -65,220 -42,182 -61,217 -39,176 -64,214 -36,199 -44,210 -34,176 -63,206 -32,184 -52,202 -31,175 -62,198 -29,175 -61,194 -28,174 -61,190 -28,176 -54,185 -27,171 -58,181 -27,170 -58,177 -28,168 -57,172 -28,165 -56,169 -29,161 -56,165 -33,157 -57,165 -27,152 -57,164 -26,149 -56,164 -25,147 -33,151 -26,155 -21,164 -16,175 -12,187 -10,200 -12,215 -15,229 -19,230 -38,224 -20,208 -13,190 -11,173 -15,158 -25,150 -40,140 -54,146 -70,160 -81,177 -85,198 -79,181 -84,163 -83,149 -74,140 -58,138 -40,144 -24,158 -13,176 -10,193 -11,224 -20,230 -39,234 2,227 -34,231 -3,223 -31,228 -12,220 -28,227 -11,216 -26,224 -11,213 -25,220 -9,210 -24,217 -7,207 -23,213 -5,205 -22,209 -4,202 -22,205 -2,198 -22,202 -1,195 -22,198 0,193 -22,194 1,191 -22,190 1,188 -23,186 2,185 -23,182 2,182 -24,178 2,179 -25,174 2,177 -26,170 1,175 -27,166 1,173 -28,162 0,172 -29,158 -1,170 -30,154 -3,163 -22,150 -4,168 -31,146 -7,160 -24,143 -9,167 -33,140 -12,166 -34,137 -15,165 -35,134 -18,165 -37,132 -21,163 -40,130 -25,162 -43,129 -28,160 -46,128 -32,159 -49,127 -36,157 -53,127 -40,155 -56,127 -44,154 -58,128 -49,143 -57,128 -53,151 -59,129 -58,143 -61,131 -62,151 -61,133 -66,151 -63,135 -69,152 -64,137 -73,153 -66,140 -76,155 -68,143 -79,157 -69,146 -82,158 -71,149 -84,161 -73,152 -87,163 -74,156 -88,166 -75,160 -90,168 -76,164 -91,170 -77,168 -92,171 -78,172 -93,174 -82,176 -93,175 -78,180 -93,176 -76,184 -93,176 -75,189 -92,180 -77,193 -91,177 -72,199 -90,187 -78,203 -89,177 -68,207 -87,177 -67,212 -85,177 -66,216 -82,177 -66,219 -79,207 -76,196 -72,207 -76,219 -79,219 -79" fill="none" stroke="rgb(10,85,163)" id="needle_12"/>
        <polyline points="231 -4,231 -4,224 -12,231 -4,224 -12,231 -4,224 -12,213 -6,202 -2,190 0,178 1,165 0,153 -4,143 -11,134 -20,129 -31,128 -43,130 -56,134 -67,142 -77,151 -85,162 -90,174 -92,186 -92,199 -89,210 -85,219 -77,225 -66,225 -54,220 -43,210 -35,198 -30,186 -28,174 -29,166 -31,177 -25,189 -21,201 -21,213 -24,223 -30,231 -36,232 -24,233 -12,233 -4,232 -16,231 -28,230 -38,222 -29,212 -23,199 -21,187 -22,176 -26,166 -31,179 -28,191 -29,203 -32,214 -38,222 -47,226 -58,224 -71,216 -80,206 -87,194 -91,181 -92,169 -91,158 -88,147 -82,138 -73,132 -62,129 -51,128 -39,131 -26,137 -16,147 -8,158 -2,170 0,182 1,195 0,206 -4,217 -8,227 -12,231 -4,223 4,244 -3,222 2,242 -6,221 1,241 -9,221 0,239 -13,224 -2,237 -17,221 1,234 -21,222 2,232 -24,222 2,230 -28,219 4,224 -25,217 5,220 -23,215 6,216 -20,212 7,212 -18,210 8,208 -16,207 8,204 -15,205 9,200 -13,201 10,195 -12,197 10,192 -11,193 11,190 -11,189 12,187 -10,185 12,184 -10,181 12,181 -10,177 12,177 -10,173 12,174 -10,169 11,171 -11,165 11,168 -11,161 10,166 -12,157 9,163 -12,153 8,160 -13,149 6,158 -14,145 4,155 -15,142 3,153 -16,139 0,151 -18,135 -2,149 -19,132 -5,147 -21,130 -8,146 -22,126 -12,144 -25,124 -15,143 -26,122 -18,142 -28,121 -22,141 -30,119 -26,140 -32,118 -30,140 -35,118 -34,139 -37,117 -38,139 -39,117 -42,139 -42,117 -46,139 -45,118 -50,139 -47,118 -54,140 -50,119 -59,141 -53,120 -62,141 -55,122 -66,142 -58,123 -70,143 -60,125 -73,144 -62,128 -77,146 -65,130 -80,147 -67,133 -83,149 -69,135 -86,151 -70,138 -89,153 -72,141 -91,154 -74,145 -94,156 -75,148 -96,158 -76,152 -98,161 -77,156 -99,164 -79,159 -100,166 -79,163 -101,168 -80,167 -102,171 -80,171 -103,173 -81,175 -103,176 -81,179 -103,179 -81,183 -103,182 -81,187 -103,185 -81,191 -102,188 -80,195 -102,191 -80,199 -101,194 -79,203 -100,196 -79,207 -98,199 -78,211 -97,202 -77,214 -95,204 -76,218 -93,206 -74,221 -90,208 -73,224 -88,210 -71,228 -85,211 -70,230 -81,212 -68,233 -78,213 -67,234 -75,220 -69,236 -70,215 -64,236 -67,215 -63,237 -62,215 -61,237 -58,219 -59,237 -54,215 -58,236 -50,214 -56,234 -47,214 -55,233 -43,216 -52,230 -39,212 -52,228 -36,211 -50,225 -33,210 -49,222 -30,208 -47,219 -28,206 -46,216 -26,204 -45,212 -24,202 -43,208 -22,200 -42,204 -21,197 -42,200 -19,195 -41,196 -19,192 -40,193 -18,190 -40,189 -18,187 -39,184 -17,184 -39,180 -18,183 -39,176 -18,180 -35,172 -18,179 -39,168 -19,177 -39,165 -20,175 -40,161 -22,175 -39,164 -20,179 -37,168 -17,181 -35,171 -16,184 -34,175 -14,186 -33,179 -13,188 -33,183 -12,190 -32,186 -11,193 -32,190 -10,195 -32,194 -10,198 -32,198 -10,200 -32,202 -10,203 -32,206 -10,205 -32,210 -11,206 -33,213 -12,208 -34,217 -13,210 -34,220 -15,211 -34,223 -17,212 -35,226 -19,219 -31,230 -22,214 -36,233 -25,216 -37,236 -28,218 -39,239 -32,219 -41,242 -32,220 -36,242 -29,220 -32,242 -26,220 -28,243 -23,221 -24,243 -21,221 -20,243 -18,221 -16,243 -15,221 -12,244 -11,222 -8,244 -8,222 -3,244 -5,223 1,244 -2,223 4,234 1,223 4" fill="none" stroke="rgb(11,61,145)" id="needle_13"/>
        <polyline points="154 -57,154 -57,166 -56,154 -57,166 -56,154 -57,166 -56,176 -62,178 -74,173 -79,161 -74,151 -64,159 -73,171 -78,176 -77,178 -65,169 -56,154 -57,163 -63,136 -56,164 -62,140 -53,163 -60,146 -51,168 -62,151 -49,168 -63,156 -48,169 -64,161 -47,167 -58,165 -47,168 -66,170 -47,167 -66,174 -48,166 -67,178 -49,169 -65,181 -51,167 -66,183 -55,168 -65,185 -59,168 -64,186 -64,175 -65,186 -69,170 -63,186 -73,171 -63,185 -78,172 -64,183 -84,175 -74,181 -88,170 -67,178 -91,168 -67,174 -90,167 -66,170 -89,166 -69,166 -88,166 -65,162 -86,166 -65,157 -84,166 -64,153 -82,160 -69,150 -78,165 -65,147 -75,165 -66,145 -72,164 -66,142 -68,159 -65,139 -64,163 -64,138 -60,162 -63,136 -56,147 -59,136 -56,136 -56" fill="none" stroke="rgb(11,61,145)" id="needle_14"/>
        <polyline points="331 -6,331 -6,331 -9,318 -1,331 -11,323 -1,331 -12,328 -1,331 -10,332 0,330 -13,337 0,330 -14,341 0,331 -14,345 -2,330 -14,344 -6,335 -22,326 -33,318 -45,313 -58,306 -48,298 -36,292 -27,274 -29,271 -43,269 -58,267 -71,265 -85,252 -85,239 -86,227 -86,252 -78,258 -61,263 -44,268 -28,279 -36,278 -54,278 -81,249 -82,283 -71,255 -51,284 -40,264 -22,291 -29,260 -36,283 -55,250 -67,278 -85,226 -86" fill="none" stroke="rgb(10,85,163)" id="needle_15"/>
        <polyline points="296 -87,240 -79,290 -84,241 -75,289 -81,243 -71,289 -78,244 -67,289 -74,245 -64,289 -70,246 -60,289 -66,247 -56,289 -62,249 -52,289 -58,250 -49,290 -54,251 -45,290 -50,252 -41,290 -46,253 -37,290 -43,254 -33,290 -40,255 -29,292 -38,257 -25,295 -36,258 -22,296 -33,258 -19,297 -29,259 -17,298 -25,287 -20,277 -17,279 -11,279 -6,264 -3,249 1,283 -11,266 -5,248 1,308 -3,252 -2,304 -6,256 -5,300 -10,260 -8,297 -13,261 -11,297 -17,260 -14,299 -21,259 -17,298 -25,259 -18,297 -28,289 -38,291 -27,294 -15,298 -36,313 -58,314 -41,326 -28,340 -29,327 -40,316 -66,308 -51,298 -36,294 -14,289 -39,297 -18,290 -42,300 -22,293 -46,302 -25,296 -50,303 -27,300 -55,304 -34,303 -60,304 -30,308 -66,311 -61,313 -74,306 -32,319 -82,307 -32,322 -79,307 -31,325 -74,311 -36,327 -69,309 -30,329 -64,316 -39,331 -59,310 -28,333 -55,312 -26,335 -51,315 -23,336 -48,317 -20,337 -46,320 -17,337 -44,323 -14,337 -43,326 -11,336 -37,330 -8,338 -42,334 -6,335 -16,338 -4,338 -41,342 -1,338 -41,345 0,340 -41,347 0,344 -40,349 0,348 -37,351 0,352 -33,353 0,356 -29,355 1,359 -26,361 -5,372 -3,382 1,374 -3,367 -5,360 -11,365 -6,374 -3,381 1,385 1,378 1,381 -3,375 1,378 -5,371 1,375 -7,366 1,372 -9,362 1,370 -13,358 1,368 -18,355 1,365 -21,354 0,362 -24,353 -5,359 -27,350 0,356 -30,363 -19,371 -9,360 -19,349 -29,338 -39,349 -37,353 -54,357 -71,381 -81,376 -64,371 -48,365 -26,343 -38,373 -35,349 -60,383 -68,352 -85,386 -86,352 -73,378 -52,346 -47,368 -18,338 -40,371 -8,338 -42,372 -12,338 -43,374 -16,352 -35,375 -20,339 -46,376 -24,339 -47,377 -28,340 -49,378 -32,340 -52,380 -36,341 -54,381 -40,342 -57,382 -44,343 -60,383 -47,343 -63,384 -52,344 -66,385 -56,345 -69,387 -60,346 -72,388 -63,346 -74,389 -67,347 -77,390 -71,348 -79,391 -75,348 -82,392 -79,352 -84,394 -83,340 -86,401 -87" fill="none" stroke="rgb(10,85,163)" id="needle_16"/>
        <polyline points="407 -91" fill="none" stroke="rgb(10,85,163)" id="needle_17"/>
        <polyline points="402 -89,402 -89,392 -82,402 -89,392 -82,402 -89,392 -82,389 -70,385 -58,382 -46,378 -35,375 -23,371 -11,374 -6,384 1,372 0,360 0,348 -1,336 -1,324 -2,319 -2,329 -8,321 -18,313 -27,305 -32,298 -21,296 -13,305 -5,300 -3,288 -2,276 -1,264 0,249 1,259 -6,262 -11,259 -22,255 -34,252 -45,248 -57,245 -68,241 -80,227 -86,239 -87,252 -88,264 -89,276 -90,288 -90,304 -91,293 -86,288 -82,288 -69,289 -57,289 -44,289 -38,296 -48,303 -58,310 -68,317 -78,322 -79,327 -67,331 -56,336 -45,338 -39,341 -52,345 -64,348 -76,347 -82,336 -89,348 -90,360 -90,372 -90,385 -91,397 -91,402 -91,390 -91,378 -91,366 -90,354 -90,342 -90,336 -89,346 -83,348 -79,345 -67,342 -54,338 -39,334 -51,329 -62,324 -73,319 -81,312 -71,305 -61,298 -51,289 -38,289 -51,288 -63,288 -76,290 -85,304 -91,292 -91,280 -90,268 -89,256 -88,243 -87,227 -86,238 -81,242 -76,246 -64,249 -53,253 -41,256 -29,260 -18,261 -8,249 1,261 0,273 -1,285 -2,297 -3,305 -5,296 -13,296 -18,303 -29,307 -32,316 -23,325 -14,328 -8,319 -2,331 -1,343 -1,355 0,367 0,379 1,384 1,374 -6,371 -11,375 -23,378 -34,382 -46,385 -58,389 -70,392 -82,402 -89,409 -80,403 -102,408 -79,400 -100,406 -79,397 -98,405 -78,394 -97,399 -83,390 -94,403 -77,386 -92,401 -75,383 -89,401 -72,382 -85,400 -70,381 -81,399 -67,379 -77,398 -64,378 -73,398 -62,377 -70,397 -59,376 -65,396 -56,375 -62,395 -52,374 -58,394 -48,373 -55,393 -44,372 -51,392 -41,371 -47,391 -37,369 -44,389 -33,368 -40,389 -31,367 -37,388 -28,366 -34,387 -26,365 -30,387 -24,364 -26,386 -22,363 -22,385 -20,362 -18,385 -18,361 -14,384 -15,359 -9,383 -13,358 -4,384 -13,363 -1,384 -13,367 2,384 -13,371 5,386 -12,375 7,387 -11,378 9,387 -7,387 -10,377 11,383 -10,374 11,379 -10,371 11,375 -11,368 11,371 -11,366 11,368 -11,363 11,364 -11,359 11,360 -11,355 11,355 -11,351 10,352 -12,347 10,348 -12,343 10,344 -12,340 10,340 -12,336 10,336 -12,334 10,332 -12,331 10,328 -12,328 10,325 -13,325 9,320 -13,322 9,317 -14,326 7,321 -8,328 5,317 -14,331 3,316 -13,336 0,315 -12,339 -2,320 -10,343 -4,313 -11,346 -7,334 -11,343 -11,312 -12,339 -15,320 -15,336 -18,311 -13,333 -21,311 -13,330 -25,310 -14,328 -27,312 -16,325 -30,310 -14,322 -33,315 -28,319 -36,309 -15,316 -39,310 -24,313 -42,308 -16,309 -46,308 -16,304 -50,308 -16,301 -46,306 -21,298 -42,308 -16,296 -38,308 -17,294 -34,309 -17,292 -32,302 -21,290 -28,309 -17,288 -26,309 -17,286 -22,308 -17,283 -18,304 -16,281 -12,309 -16,284 -9,295 -10,287 -6,309 -16,291 -3,304 -11,294 0,309 -16,297 3,310 -15,300 5,311 -14,300 8,306 -14,297 9,302 -14,294 9,298 -14,292 9,294 -13,289 9,290 -13,286 9,285 -13,283 9,281 -12,279 10,277 -12,275 10,274 -12,271 10,269 -12,267 11,265 -11,264 11,261 -11,261 11,257 -11,258 11,253 -11,255 11,249 -10,253 11,248 -7,256 9,248 -12,259 7,249 -13,261 5,249 -13,264 3,252 -11,267 1,250 -13,271 -2,266 -8,275 -5,249 -16,274 -10,248 -19,272 -15,248 -21,271 -19,247 -23,270 -23,246 -25,269 -27,246 -27,267 -31,245 -29,266 -35,244 -33,265 -39,243 -37,264 -43,241 -41,262 -48,240 -45,261 -51,239 -48,260 -55,238 -52,259 -59,237 -56,258 -62,236 -59,257 -67,235 -61,256 -70,235 -63,254 -74,234 -66,253 -78,233 -68,252 -82,232 -71,250 -87,231 -72,248 -89,230 -73,243 -91,229 -73,240 -93,231 -81,236 -94,227 -74,232 -96,225 -75,232 -98,230 -75,235 -98,233 -76,238 -98,237 -76,241 -98,241 -76,244 -98,244 -76,247 -99,248 -77,251 -99,253 -77,255 -99,257 -77,259 -99,261 -77,263 -100,264 -78,267 -100,268 -78,270 -100,272 -78,275 -100,276 -78,279 -101,280 -79,283 -101,284 -79,285 -101,287 -79,289 -101,291 -79,292 -102,295 -80,295 -102,299 -80,298 -102,303 -80,302 -102,304 -79,297 -100,302 -78,293 -98,297 -83,289 -96,300 -77,285 -94,293 -82,281 -92,299 -77,277 -90,299 -74,277 -85,299 -71,277 -81,299 -69,277 -76,299 -67,277 -72,299 -64,277 -68,299 -62,277 -63,299 -59,277 -59,300 -55,278 -56,300 -51,278 -53,300 -47,278 -50,300 -42,278 -47,300 -39,278 -44,300 -35,280 -45,302 -37,283 -49,303 -40,285 -52,305 -42,287 -55,306 -44,289 -58,308 -46,292 -62,309 -48,294 -65,310 -49,296 -68,310 -50,299 -72,307 -59,301 -75,312 -52,304 -79,312 -53,307 -84,313 -55,311 -89,313 -67,315 -94,315 -58,318 -99,317 -60,322 -104,318 -61,326 -97,320 -66,328 -90,319 -57,331 -84,324 -66,333 -79,320 -54,335 -75,321 -53,337 -70,321 -52,339 -66,324 -53,340 -63,322 -51,342 -58,322 -49,344 -55,323 -47,345 -51,324 -45,347 -47,325 -43,348 -44,326 -41,350 -40,328 -43,351 -44,329 -47,351 -46,330 -51,352 -49,331 -55,353 -52,332 -59,353 -54,333 -63,354 -58,333 -64,355 -62,334 -66,356 -66,334 -68,357 -70,335 -70,358 -74,335 -72,359 -77,336 -74,361 -82,337 -76,361 -87,350 -85,357 -89,336 -76,354 -91,340 -82,349 -94,335 -77,346 -96,334 -78,342 -99,333 -78,342 -101,337 -78,345 -101,341 -79,348 -101,346 -79,351 -101,350 -79,354 -101,354 -79,357 -101,358 -79,361 -101,362 -79,365 -101,366 -79,369 -101,370 -79,373 -101,374 -79,377 -102,378 -80,381 -102,381 -80,385 -102,385 -80,389 -102,390 -80,392 -102,394 -80,395 -102,398 -80,398 -102,402 -80,401 -102,406 -80,404 -102,410 -81,407 -92,410 -81,410 -81" fill="none" stroke="rgb(11,61,145)" id="needle_18"/>
        <polyline points="417 -65,417 -65,429 -65,441 -65,429 -65,417 -65,443 -65,420 -51,406 -76,411 -38,410 -76,415 -39,414 -76,419 -40,417 -76,422 -40,422 -76,426 -41,426 -76,429 -41,430 -76,432 -42,433 -76,436 -43,437 -76,439 -43,441 -76,443 -44,445 -76,446 -45,449 -75,450 -45,453 -75,453 -46,457 -75,456 -47,460 -75,458 -47,458 -47" fill="none" stroke="rgb(10,85,163)" id="needle_19"/>
        <polyline points="460 -69,460 -69,459 -57,460 -69,459 -57,460 -69,459 -57,456 -48,445 -45,433 -43,421 -41,411 -40,409 -53,407 -65,408 -75,420 -75,432 -75,445 -75,456 -74,444 -75,431 -75,419 -75,406 -75,408 -63,410 -51,413 -39,425 -42,437 -44,449 -46,459 -50,460 -62,460 -69,472 -84,449 -63,472 -79,453 -66,471 -74,449 -62,471 -69,449 -62,471 -64,448 -61,470 -61,456 -61,470 -56,448 -60,470 -52,448 -59,469 -48,448 -59,469 -44,451 -56,469 -39,448 -57,463 -38,446 -57,459 -37,443 -56,454 -36,441 -56,450 -35,439 -56,446 -35,438 -55,442 -34,436 -55,438 -33,434 -55,434 -32,432 -54,429 -31,430 -50,426 -31,429 -54,422 -30,428 -53,417 -29,426 -53,412 -28,422 -49,407 -27,422 -52,402 -26,414 -44,401 -32,420 -53,400 -38,420 -55,400 -43,420 -56,399 -48,416 -55,398 -51,420 -58,398 -55,412 -57,397 -59,419 -59,397 -63,419 -60,396 -67,419 -61,396 -71,416 -63,395 -76,419 -62,394 -81,411 -69,394 -86,419 -64,400 -86,421 -64,406 -86,424 -64,411 -86,423 -68,416 -86,428 -64,421 -86,429 -64,425 -86,431 -64,429 -86,432 -67,433 -86,434 -64,437 -86,435 -64,441 -86,437 -64,445 -86,439 -68,449 -85,440 -64,453 -85,442 -64,458 -85,443 -64,463 -85,448 -67,468 -85,447 -64,472 -85,449 -64,458 -72,449 -64,449 -64" fill="none" stroke="rgb(11,61,145)" id="needle_20"/>
        <polyline points="550 -42,550 -42,540 -36,550 -42,540 -36,550 -42,535 -33,518 -35,505 -47,501 -63,508 -80,525 -78,539 -65,526 -77,509 -80,493 -75,483 -60,481 -42,488 -26,502 -16,520 -12,538 -11,554 -40,546 -46,560 -24,536 -39,539 -6,525 -38,506 -9,515 -44,480 -28,508 -52,478 -61,507 -66,500 -84,518 -77,531 -77,541 -59,529 -71,517 -84,510 -73,486 -75,493 -60,475 -44,511 -48,491 -16,513 -24,523 -7,532 -38,557 -5,551 -32,560 -41,540 -48,566 -45,539 -48,566 -41,539 -48,566 -37,544 -44,566 -32,538 -47,566 -28,558 -29,566 -22,537 -46,566 -17,547 -32,566 -11,534 -45,574 3,534 -45,569 2,533 -44,563 2,536 -38,558 2,532 -44,554 1,543 -14,549 1,532 -44,545 1,534 -29,540 1,531 -44,536 0,530 -44,532 0,527 -44,528 0,525 -28,524 0,525 -45,519 -1,521 -28,515 -1,523 -45,511 -1,517 -29,507 -2,522 -46,503 -3,521 -47,499 -4,521 -47,496 -6,516 -42,492 -8,519 -48,488 -10,507 -37,485 -12,518 -50,482 -15,505 -39,479 -18,517 -51,477 -21,516 -51,474 -24,516 -52,473 -28,507 -48,471 -32,515 -53,470 -36,482 -44,469 -40,514 -55,469 -44,514 -55,469 -48,514 -56,469 -52,507 -57,470 -56,513 -58,471 -61,486 -63,472 -64,513 -60,474 -68,513 -62,476 -72,513 -63,479 -76,501 -70,481 -79,513 -65,484 -82,504 -73,488 -85,514 -67,492 -87,514 -68,496 -89,515 -69,500 -90,512 -77,504 -91,517 -70,509 -91,519 -70,513 -91,520 -69,518 -90,521 -76,522 -89,523 -68,526 -88,525 -67,529 -86,527 -65,533 -83,529 -63,536 -80,531 -61,539 -77,534 -58,542 -74,537 -54,545 -72,540 -51,547 -72,544 -52,549 -73,555 -65,554 -80,552 -94,551 -108,549 -123,536 -125,522 -128,545 -117,549 -100,552 -82,555 -55,555 -73,555 -91,555 -117,539 -123,521 -128,578 -124,527 -124,572 -121,532 -120,567 -119,534 -116,567 -116,534 -112,567 -113,535 -108,567 -110,536 -104,567 -107,537 -100,567 -104,538 -96,567 -100,538 -92,567 -96,539 -88,567 -92,540 -85,567 -88,541 -81,567 -84,541 -77,567 -80,542 -73,567 -76,542 -70,566 -72,542 -66,566 -68,541 -63,566 -64,540 -60,566 -60,539 -57,566 -57,538 -54,566 -53,539 -51,566 -49,540 -48,566 -45,554 -46,542 -48,554 -46,566 -45,566 -45" fill="none" stroke="rgb(10,85,163)" id="needle_21"/>
        <polyline points="572 -122,572 -122,566 -117,572 -122,566 -117,572 -122,566 -117,566 -105,566 -92,566 -80,565 -68,565 -56,565 -44,565 -31,565 -19,567 -8,575 1,562 1,550 0,538 0,526 -1,514 -2,501 -5,490 -10,481 -18,474 -28,470 -40,471 -53,474 -65,480 -76,488 -84,500 -89,512 -90,524 -87,535 -81,544 -71,541 -83,539 -94,537 -106,534 -118,522 -128,534 -127,546 -126,558 -125,572 -124,560 -125,548 -126,536 -127,522 -128,532 -121,536 -111,538 -99,540 -88,543 -76,544 -71,535 -80,525 -87,513 -90,501 -90,489 -85,480 -76,474 -66,471 -54,470 -41,473 -29,480 -19,489 -11,500 -5,513 -2,525 -1,537 -1,549 0,561 1,574 2,567 -8,565 -20,565 -32,565 -45,565 -57,565 -69,566 -81,566 -93,566 -106,566 -118,572 -122,578 -112,574 -135,577 -112,570 -133,573 -119,567 -131,576 -111,563 -130,576 -112,558 -127,577 -112,555 -125,577 -109,555 -121,577 -106,555 -116,577 -104,555 -112,577 -102,555 -108,577 -99,555 -103,577 -97,555 -99,577 -95,555 -95,577 -90,555 -90,577 -86,555 -86,577 -82,555 -82,577 -78,555 -78,577 -74,555 -74,576 -70,554 -70,576 -67,554 -67,576 -62,554 -62,576 -58,554 -58,576 -54,554 -54,576 -51,554 -51,576 -47,554 -47,576 -43,554 -43,576 -38,554 -38,576 -35,554 -35,576 -31,554 -31,576 -28,554 -27,576 -25,554 -23,576 -22,554 -18,576 -20,554 -14,576 -17,554 -10,576 -14,554 -6,577 -13,557 -3,578 -12,559 0,579 -11,562 3,575 -5,565 7,580 -9,568 10,581 -9,567 12,576 -9,564 12,572 -9,561 12,568 -10,559 12,563 -10,556 12,560 -10,553 12,555 -10,550 11,551 -11,546 11,548 -11,542 11,544 -11,538 11,540 -11,534 10,536 -12,530 10,532 -12,526 10,528 -12,522 10,524 -12,518 9,520 -13,515 9,517 -13,511 9,514 -13,507 8,511 -14,503 7,508 -14,499 6,505 -15,495 4,503 -16,491 3,500 -17,487 1,498 -18,484 -1,496 -19,481 -3,494 -21,478 -5,492 -22,475 -8,490 -24,472 -11,488 -26,469 -14,487 -28,467 -17,485 -29,465 -21,484 -31,463 -25,483 -33,462 -28,483 -35,460 -33,482 -38,460 -37,481 -40,459 -41,481 -43,459 -45,481 -45,459 -49,481 -48,459 -53,481 -50,460 -56,482 -53,461 -61,482 -55,462 -65,483 -58,463 -68,484 -60,465 -72,485 -63,467 -75,486 -65,469 -79,487 -67,471 -83,489 -69,474 -86,490 -71,477 -89,492 -73,480 -91,493 -74,483 -94,495 -75,486 -96,497 -76,490 -97,499 -77,494 -99,501 -78,498 -100,503 -79,502 -101,505 -79,505 -101,507 -79,510 -101,509 -79,514 -101,512 -79,518 -101,514 -79,522 -100,517 -78,526 -99,519 -78,530 -97,521 -77,533 -95,522 -76,536 -93,526 -79,540 -91,525 -75,543 -88,526 -74,546 -85,528 -72,549 -82,530 -71,551 -79,532 -69,554 -76,532 -71,553 -79,532 -74,553 -82,531 -79,552 -85,530 -82,551 -88,529 -87,551 -91,529 -90,550 -94,528 -94,549 -98,527 -97,549 -102,527 -100,548 -106,526 -103,547 -110,525 -106,546 -114,525 -108,545 -119,524 -111,544 -123,523 -113,542 -126,522 -114,539 -129,521 -115,536 -132,524 -122,533 -134,519 -117,529 -137,518 -118,530 -139,522 -117,533 -138,526 -117,535 -138,530 -117,538 -138,534 -116,541 -138,539 -116,544 -138,543 -116,549 -137,547 -115,553 -137,551 -115,557 -137,555 -115,560 -136,559 -114,563 -136,563 -114,566 -136,567 -114,569 -135,571 -113,572 -135,575 -113,575 -135,579 -113,577 -125,579 -113" fill="none" stroke="rgb(11,61,145)" id="needle_22"/>
        <polyline points="513 -67,513 -67,513 -55,513 -67,513 -55,513 -67,513 -55,521 -46,533 -43,540 -49,534 -60,520 -70,530 -63,538 -53,539 -47,528 -43,517 -49,512 -60,513 -67,519 -59,512 -84,518 -57,509 -80,516 -59,507 -75,519 -55,505 -70,520 -54,504 -65,521 -54,504 -61,516 -55,504 -55,523 -55,505 -51,524 -56,506 -47,524 -57,508 -43,523 -54,510 -40,526 -55,513 -38,525 -55,516 -37,524 -54,520 -36,524 -47,524 -35,523 -52,529 -35,523 -51,533 -35,523 -50,537 -36,527 -47,541 -37,525 -49,547 -40,526 -49,551 -42,528 -51,554 -46,530 -52,552 -50,526 -54,549 -55,532 -56,547 -59,524 -55,544 -63,529 -59,542 -67,523 -55,539 -70,523 -56,535 -73,523 -56,532 -75,524 -60,528 -77,522 -57,524 -79,521 -66,521 -81,521 -59,516 -83,519 -59,512 -84,516 -72,512 -84,512 -84" fill="none" stroke="rgb(11,61,145)" id="needle_23"/>
        <polyline points="638 -55,638 -55,629 -48,638 -55,629 -48,638 -55,624 -44,607 -42,592 -51,595 -67,608 -79,625 -85,641 -79,641 -62,668 -47,664 -64,652 -77,635 -84,618 -83,602 -75,591 -61,590 -43,595 -27,608 -15,625 -9,642 -12,657 -21,679 -44,662 -49,646 -55,628 -61,680 -43,628 -61,679 -39,628 -60,679 -35,637 -54,677 -31,627 -59,676 -27,661 -33,674 -24,626 -59,672 -20,643 -42,669 -17,626 -58,667 -14,625 -58,664 -11,625 -57,661 -9,629 -50,657 -6,624 -57,654 -4,632 -38,650 -2,623 -56,646 -1,629 -37,643 0,621 -55,639 1,621 -55,635 2,620 -55,630 2,620 -44,626 2,618 -54,622 2,618 -14,618 1,617 -54,614 0,616 -54,610 -1,615 -54,606 -3,613 -47,602 -4,614 -54,599 -7,607 -39,595 -9,611 -54,592 -12,611 -54,589 -15,610 -54,587 -19,604 -48,584 -23,608 -54,582 -27,597 -46,581 -31,606 -55,580 -36,605 -56,579 -40,603 -57,579 -45,599 -56,579 -49,602 -58,580 -53,601 -58,581 -58,601 -59,582 -62,601 -59,583 -66,602 -61,585 -69,600 -64,588 -73,604 -64,590 -76,606 -65,593 -79,608 -67,596 -82,610 -69,599 -84,613 -70,603 -86,614 -72,606 -88,617 -73,610 -90,619 -74,614 -91,622 -75,617 -92,625 -76,622 -92,626 -76,626 -93,628 -83,630 -93,628 -77,634 -93,629 -76,639 -93,630 -75,643 -92,636 -79,647 -91,631 -72,652 -89,639 -76,656 -87,631 -70,660 -85,631 -67,664 -82,631 -66,667 -79,644 -69,670 -75,630 -65,673 -72,630 -64,675 -68,630 -64,676 -64,639 -62,678 -60,629 -63,679 -56,665 -54,679 -51,629 -62,680 -47,628 -61,680 -43,628 -61,679 -39,668 -44,657 -48,668 -44,679 -39,679 -39" fill="none" stroke="rgb(10,85,163)" id="needle_24"/>
        <polyline points="678 -40,678 -40,675 -29,678 -40,675 -29,678 -40,675 -29,669 -18,660 -9,650 -3,638 0,625 1,613 -1,602 -6,592 -14,585 -24,581 -36,580 -48,582 -60,588 -71,596 -80,607 -87,618 -91,631 -92,643 -91,655 -87,665 -79,673 -70,677 -58,678 -51,676 -63,670 -74,661 -83,650 -89,638 -92,626 -92,614 -90,602 -85,593 -77,585 -67,581 -55,580 -43,582 -31,587 -19,595 -10,606 -4,618 0,630 1,643 -1,654 -5,664 -13,672 -22,677 -33,678 -40,690 -45,668 -45,690 -41,668 -42,689 -38,667 -39,688 -34,667 -36,687 -30,666 -34,686 -26,673 -30,685 -22,665 -31,682 -18,663 -29,680 -15,662 -27,678 -11,661 -25,675 -9,659 -23,672 -6,657 -21,669 -3,655 -19,666 0,653 -18,663 2,651 -16,659 4,648 -15,656 6,646 -14,652 8,644 -13,648 9,642 -12,644 10,639 -11,641 11,637 -11,637 12,634 -10,632 12,631 -10,629 12,629 -10,625 12,626 -10,621 12,623 -10,616 11,620 -11,613 10,618 -11,609 9,615 -12,605 8,613 -13,601 6,611 -14,598 5,609 -15,594 2,606 -16,591 0,604 -17,588 -2,602 -19,585 -5,601 -21,582 -8,599 -22,580 -11,597 -24,578 -14,596 -26,575 -18,595 -28,574 -22,594 -30,572 -25,593 -32,571 -29,592 -35,570 -33,592 -37,569 -37,591 -40,569 -41,591 -42,569 -45,591 -45,569 -50,591 -48,570 -53,591 -50,570 -58,592 -53,571 -62,592 -56,572 -65,593 -58,574 -69,594 -60,576 -73,595 -62,578 -77,596 -65,580 -80,598 -66,583 -83,599 -68,586 -86,601 -70,589 -89,603 -72,592 -92,605 -74,595 -94,607 -75,599 -96,609 -76,603 -97,612 -77,607 -99,614 -78,610 -100,616 -79,614 -101,619 -80,618 -102,622 -80,622 -103,625 -81,626 -103,627 -81,630 -103,630 -81,634 -103,633 -81,638 -103,636 -81,642 -102,639 -81,646 -101,641 -80,650 -100,644 -79,654 -99,646 -79,657 -98,648 -78,661 -96,651 -76,664 -94,652 -75,668 -91,655 -74,671 -89,656 -72,674 -86,658 -71,676 -83,660 -69,679 -80,661 -67,681 -77,663 -65,683 -74,664 -63,685 -70,665 -61,686 -66,665 -60,687 -62,666 -58,688 -58,667 -55,689 -54,667 -53,690 -50,668 -50,690 -46,668 -46,680 -46,668 -46" fill="none" stroke="rgb(11,61,145)" id="needle_25"/>
        <polyline points="604 -55,604 -55,615 -53,604 -55,615 -53,604 -55,616 -53,627 -58,632 -69,627 -78,616 -74,606 -67,602 -63,611 -71,623 -76,630 -76,631 -64,623 -55,611 -53,604 -55,613 -60,586 -57,615 -59,590 -54,613 -57,595 -50,618 -59,600 -48,618 -60,605 -46,618 -61,610 -45,617 -55,614 -44,618 -63,618 -44,618 -64,622 -44,618 -65,627 -45,622 -59,631 -47,619 -66,633 -49,620 -65,635 -52,621 -64,637 -56,627 -62,638 -60,623 -62,639 -64,624 -62,639 -69,625 -62,639 -74,628 -65,638 -78,626 -63,636 -83,629 -73,634 -87,625 -66,631 -90,623 -65,626 -89,621 -64,622 -87,619 -71,618 -86,619 -63,613 -84,616 -69,610 -82,618 -62,606 -80,613 -67,603 -78,617 -63,600 -75,616 -63,596 -71,615 -63,594 -68,610 -63,591 -65,614 -61,588 -61,613 -60,586 -58,598 -59,586 -58,586 -58" fill="none" stroke="rgb(11,61,145)" id="needle_26"/>
        <polyline points="765 -71,765 -71,753 -71,765 -71,753 -71,765 -71,748 -71,736 -59,734 -42,743 -27,771 -24,755 -17,739 -10,721 -10,706 -18,696 -33,697 -51,704 -67,718 -78,735 -81,765 -71,775 -54,770 -94,770 -58,768 -88,766 -60,767 -79,762 -61,767 -79,758 -61,764 -81,756 -61,760 -83,754 -60,756 -86,753 -60,752 -88,751 -59,748 -89,750 -63,744 -91,750 -58,739 -92,744 -69,735 -92,748 -56,731 -92,747 -55,726 -92,747 -54,722 -91,741 -61,718 -90,746 -54,714 -89,720 -77,710 -87,746 -53,706 -85,729 -64,702 -82,746 -52,699 -79,745 -51,697 -76,745 -50,694 -73,738 -53,692 -70,745 -49,690 -66,706 -58,688 -62,745 -49,687 -58,725 -50,686 -54,745 -47,685 -50,745 -46,684 -46,745 -45,684 -42,733 -44,684 -39,745 -45,684 -35,702 -34,685 -31,745 -44,686 -27,723 -36,688 -23,746 -43,690 -19,746 -43,692 -16,746 -43,695 -13,739 -38,698 -10,746 -42,701 -7,718 -17,704 -5,747 -41,708 -3,747 -40,712 -1,747 -40,716 0,742 -32,721 1,748 -38,725 2,735 -9,730 2,749 -37,734 2,750 -36,739 1,751 -36,743 0,750 -24,747 -1,753 -34,751 -2,754 -34,755 -4,756 -33,759 -7,759 -24,763 -9,759 -33,766 -12,763 -33,770 -14,766 -34,773 -15,770 -36,775 -10,774 -39,779 -3,777 -42,781 2,781 2" fill="none" stroke="rgb(10,85,163)" id="needle_27"/>
        <polyline points="779 -3,779 -3,774 -14,779 -3,774 -14,779 -3,774 -14,768 -14,758 -7,747 -2,735 1,723 0,711 -3,700 -9,692 -18,687 -29,685 -42,686 -54,691 -66,698 -76,707 -84,718 -89,730 -91,742 -90,754 -86,764 -79,768 -83,770 -93,771 -80,773 -68,775 -55,764 -61,752 -61,744 -51,746 -39,756 -32,768 -34,777 -39,779 -27,780 -15,781 -3,780 -15,778 -27,777 -40,767 -33,755 -32,746 -40,745 -52,753 -61,765 -61,774 -57,773 -69,771 -82,770 -93,767 -81,762 -81,751 -87,739 -91,727 -91,715 -88,704 -82,695 -73,689 -63,686 -51,685 -38,688 -26,694 -15,703 -7,714 -1,726 1,738 0,750 -3,761 -9,771 -17,779 -3,770 4,792 -2,769 2,790 -6,768 -1,788 -10,768 -1,786 -13,771 -4,784 -18,768 -1,782 -21,768 0,780 -26,768 0,777 -31,771 -13,775 -35,766 2,770 -31,764 4,765 -27,762 5,761 -23,759 7,757 -20,757 8,753 -18,754 9,750 -16,751 9,746 -14,748 10,742 -12,744 11,739 -11,740 11,736 -10,735 12,734 -10,731 12,731 -10,727 12,728 -10,723 12,726 -10,719 11,723 -11,715 10,720 -11,711 9,718 -12,707 8,715 -13,704 6,713 -14,700 4,711 -15,697 2,709 -16,694 0,707 -17,690 -3,705 -19,687 -6,704 -21,685 -9,702 -23,683 -12,701 -24,680 -16,700 -26,678 -19,699 -28,677 -23,698 -30,676 -27,697 -33,675 -31,697 -35,674 -35,696 -38,674 -39,696 -40,674 -43,696 -42,674 -47,696 -45,675 -51,697 -48,676 -55,697 -51,676 -59,698 -54,678 -63,699 -56,679 -67,699 -58,681 -71,700 -61,683 -74,702 -63,685 -78,703 -66,687 -81,705 -67,690 -84,707 -70,693 -87,708 -71,696 -90,710 -73,699 -92,712 -74,703 -95,714 -76,706 -96,716 -77,710 -98,718 -78,714 -99,720 -79,718 -101,723 -79,721 -101,725 -80,726 -102,728 -80,730 -102,731 -80,734 -103,734 -80,738 -103,737 -79,741 -103,742 -77,745 -103,746 -76,748 -103,750 -74,751 -102,754 -71,753 -101,758 -69,756 -100,763 -66,758 -98,768 -62,762 -91,773 -59,760 -96,774 -64,764 -86,775 -69,759 -93,777 -74,758 -92,778 -78,758 -91,779 -83,762 -91,780 -88,759 -93,781 -88,759 -89,782 -85,760 -85,782 -82,760 -81,782 -80,761 -78,783 -76,761 -74,783 -74,762 -70,784 -71,762 -66,784 -68,763 -62,784 -66,763 -58,785 -63,764 -54,785 -60,762 -52,781 -63,760 -53,778 -66,759 -53,775 -68,763 -59,771 -70,758 -53,767 -71,759 -59,763 -72,757 -52,759 -72,758 -51,755 -73,757 -51,750 -72,756 -53,747 -70,757 -51,743 -68,751 -55,740 -65,756 -49,738 -63,749 -52,735 -59,755 -49,734 -55,755 -48,733 -50,755 -47,733 -46,751 -45,734 -42,755 -46,735 -39,756 -45,736 -35,756 -45,739 -31,757 -44,741 -28,757 -43,744 -26,757 -40,748 -23,758 -43,751 -22,758 -36,755 -21,760 -43,759 -21,760 -35,763 -21,759 -41,767 -22,759 -41,771 -24,760 -41,776 -26,767 -36,779 -28,763 -42,783 -32,764 -43,786 -34,766 -45,789 -35,766 -41,789 -33,767 -37,789 -30,767 -33,790 -28,767 -29,790 -25,768 -26,790 -23,768 -22,790 -20,768 -18,791 -17,769 -15,791 -14,769 -11,791 -11,769 -7,791 -8,770 -4,792 -5,770 1,792 -1,771 5,782 1,771 5,771 5" fill="none" stroke="rgb(11,61,145)" id="needle_28"/>
        <polyline points="890 -16,890 -16,879 -22,868 -27,879 -22,890 -16,865 -29,881 -12,909 -13,862 5,906 -16,863 2,903 -20,865 -2,900 -23,866 -5,897 -26,879 -15,894 -29,868 -10,891 -32,868 -11,888 -35,866 -13,886 -38,863 -15,883 -41,861 -17,880 -44,858 -20,877 -47,855 -22,874 -50,852 -24,872 -52,849 -27,860 -40,852 -47,844 -54,849 -66,862 -78,872 -89,861 -93,850 -96,866 -88,857 -74,845 -60,857 -74,873 -87,849 -96,903 -93,851 -94,897 -89,852 -92,893 -86,859 -89,888 -83,853 -89,884 -80,854 -87,880 -77,854 -86,876 -74,859 -81,872 -72,852 -83,869 -70,849 -81,865 -67,847 -78,862 -65,844 -75,860 -62,842 -72,861 -59,839 -69,857 -56,837 -67,853 -54,836 -66,850 -52,834 -64,847 -50,833 -62,843 -48,831 -54,827 -53,822 -54,813 -55,814 -72,815 -89,817 -104,819 -121,803 -122,786 -124,806 -116,806 -98,807 -80,807 -62,821 -72,825 -90,828 -117,799 -121,833 -106,801 -91,827 -71,802 -55,826 -55,802 -73,830 -89,801 -107,838 -123,785 -124" fill="none" stroke="rgb(10,85,163)" id="needle_29"/>
        <polyline points="851 -125,793 -118,845 -121,794 -115,842 -117,794 -112,841 -113,794 -109,840 -109,795 -107,839 -106,795 -104,839 -102,795 -101,838 -98,795 -97,837 -94,795 -93,837 -90,795 -89,836 -86,795 -85,835 -82,795 -81,834 -78,795 -77,834 -74,795 -73,833 -71,795 -70,832 -67,795 -66,832 -63,796 -62,831 -60,796 -58,831 -56,796 -54,833 -53,796 -50,832 -50,812 -49,814 -35,815 -22,815 -8,800 -3,785 2,817 -15,814 -44,822 -28,827 -10,796 -2,830 -18,803 -24,824 -39,802 -48,826 -47,803 -36,827 -28,807 -13,831 -6,784 2" fill="none" stroke="rgb(10,85,163)" id="needle_30"/>
        <polyline points="786 0,843 -6,788 -3,840 -9,791 -6,838 -13,795 -9,837 -17,797 -13,836 -21,797 -17,835 -24,797 -21,834 -27,796 -25,833 -31,796 -29,832 -35,796 -33,831 -38,796 -37,830 -42,796 -41,817 -44,796 -46,831 -46,796 -50,832 -48,796 -53,833 -51,828 -45,829 -57,829 -51,830 -58,828 -44,831 -60,831 -43,832 -61,835 -43,834 -59,839 -45,833 -63,842 -47,838 -58,845 -49,834 -63,848 -50,859 -64,845 -45,860 -65,827 -44,861 -63,830 -42,863 -62,833 -39,858 -56,836 -37,865 -59,839 -34,867 -57,842 -32,870 -54,846 -29,872 -52,848 -27,848 -27" fill="none" stroke="rgb(10,85,163)" id="needle_31"/>
        <polyline points="903 -11,903 -11,892 -7,903 -11,892 -7,903 -11,891 -6,880 -2,869 3,863 3,868 -8,867 -13,857 -21,848 -29,838 -37,828 -45,831 -33,835 -22,838 -10,849 -2,837 -1,824 -1,812 0,799 1,785 2,794 -7,798 -14,797 -27,797 -39,797 -52,796 -64,796 -77,796 -89,796 -101,795 -114,792 -119,786 -124,798 -125,810 -125,822 -126,834 -127,846 -128,855 -129,844 -121,840 -115,838 -103,836 -91,833 -78,831 -66,829 -57,837 -66,845 -75,853 -84,854 -89,852 -96,865 -95,877 -95,889 -94,902 -93,891 -86,881 -79,871 -72,861 -65,862 -61,871 -52,879 -43,887 -35,896 -26,905 -17,896 -26,888 -34,879 -43,871 -52,862 -61,861 -65,871 -72,881 -79,891 -86,902 -93,890 -94,877 -95,865 -95,852 -96,853 -91,854 -84,846 -76,838 -67,829 -57,832 -69,834 -81,836 -93,838 -105,841 -118,850 -125,855 -129,842 -128,830 -127,818 -126,806 -125,794 -124,786 -124,795 -116,796 -104,796 -91,796 -79,796 -66,797 -54,797 -42,797 -29,798 -17,796 -9,785 2,797 1,810 0,822 0,834 -1,849 -2,839 -9,835 -20,832 -32,828 -45,837 -37,847 -30,857 -22,866 -14,869 -9,864 2,869 3,881 -2,892 -7,903 -11,926 -9,889 -17,919 -6,899 -12,913 -3,885 -15,908 -1,883 -15,903 1,881 -14,898 3,886 -8,894 4,879 -13,890 6,877 -13,886 8,876 -12,883 9,874 -11,880 10,870 -10,878 11,866 -8,876 12,862 -7,873 13,858 -5,871 13,855 -5,873 9,862 -2,875 5,856 -7,876 1,856 -7,878 -3,856 -8,879 -6,865 -9,881 -11,856 -8,882 -15,854 -10,879 -18,852 -11,875 -21,850 -13,872 -24,849 -14,868 -26,847 -15,865 -29,845 -17,861 -32,843 -18,858 -35,840 -21,854 -38,837 -23,851 -40,834 -26,849 -42,831 -28,846 -44,828 -31,844 -46,825 -33,842 -47,822 -36,840 -50,818 -39,838 -48,819 -36,840 -44,820 -33,841 -40,821 -30,842 -36,821 -28,843 -32,822 -25,844 -28,823 -21,845 -25,825 -17,846 -23,826 -13,847 -21,827 -10,847 -18,828 -6,848 -16,830 -2,849 -14,831 0,849 -14,834 3,850 -14,838 5,850 -13,842 7,851 -10,851 -13,843 9,847 -13,840 10,843 -13,837 10,839 -12,834 10,835 -12,831 10,831 -12,828 10,827 -12,824 10,823 -11,820 11,819 -11,817 11,816 -11,813 11,812 -11,809 11,808 -11,806 11,804 -10,803 12,800 -10,800 12,796 -10,798 12,793 -10,795 12,788 -10,792 12,784 -9,790 12,782 -11,793 9,783 -12,796 6,784 -13,799 3,791 -8,802 0,785 -14,804 -2,786 -15,808 -6,787 -18,809 -10,787 -20,809 -14,786 -23,809 -18,786 -26,808 -22,786 -29,808 -27,786 -31,808 -30,786 -34,808 -35,786 -38,808 -39,786 -42,808 -43,786 -46,808 -46,786 -50,808 -50,786 -54,808 -54,786 -58,808 -58,786 -62,808 -62,785 -66,807 -66,785 -70,807 -70,785 -74,807 -74,785 -78,807 -78,785 -82,807 -82,785 -86,807 -86,785 -89,807 -90,785 -93,807 -94,785 -96,807 -98,785 -99,807 -102,785 -101,807 -106,785 -104,806 -110,785 -106,806 -114,785 -109,806 -118,785 -111,806 -123,787 -113,803 -124,784 -112,800 -127,792 -123,797 -130,783 -112,793 -132,785 -120,783 -113,793 -135,788 -113,796 -135,792 -113,799 -136,796 -113,801 -136,800 -114,804 -136,804 -114,806 -136,807 -114,810 -136,812 -114,814 -137,816 -115,817 -137,819 -115,821 -137,823 -115,825 -138,827 -116,829 -138,831 -116,833 -138,834 -116,836 -138,838 -116,839 -138,842 -117,842 -139,846 -117,845 -139,850 -117,848 -139,854 -118,851 -139,857 -116,847 -137,855 -115,844 -134,851 -118,840 -132,853 -114,837 -129,852 -113,833 -127,851 -112,831 -124,850 -109,830 -120,850 -106,829 -116,849 -103,828 -112,849 -101,828 -107,848 -98,827 -103,848 -95,826 -99,847 -91,825 -95,846 -87,825 -91,846 -84,824 -88,845 -80,823 -84,844 -76,823 -80,843 -72,822 -77,843 -68,821 -74,842 -64,821 -71,841 -60,820 -68,840 -56,820 -65,840 -52,822 -65,842 -54,825 -68,844 -56,827 -71,846 -58,830 -74,847 -60,832 -77,849 -62,834 -79,851 -65,835 -80,854 -68,837 -81,856 -71,838 -83,859 -74,839 -84,862 -77,841 -86,865 -80,842 -88,868 -85,843 -87,866 -88,845 -89,864 -94,841 -91,864 -93,839 -94,865 -91,836 -101,866 -88,833 -108,868 -85,841 -108,859 -93,848 -107,873 -84,854 -107,875 -84,859 -107,876 -84,865 -106,874 -91,869 -106,879 -84,873 -106,880 -83,878 -106,882 -83,882 -105,883 -83,886 -105,885 -83,889 -105,889 -83,891 -105,893 -82,894 -104,897 -82,896 -104,901 -82,899 -104,902 -80,895 -102,900 -78,892 -100,897 -77,888 -97,895 -75,886 -95,893 -74,882 -93,891 -72,879 -91,890 -72,876 -89,888 -71,873 -87,884 -73,870 -85,886 -69,866 -82,884 -68,863 -80,883 -67,859 -78,878 -67,856 -75,879 -65,852 -72,877 -64,847 -69,875 -62,843 -66,872 -60,847 -61,879 -58,851 -57,881 -57,854 -53,883 -55,858 -49,881 -52,862 -45,885 -52,865 -42,887 -51,868 -39,888 -50,871 -36,889 -48,874 -33,893 -45,879 -33,896 -42,877 -30,898 -39,878 -29,902 -36,879 -27,905 -32,884 -27,907 -29,882 -25,911 -26,883 -23,914 -22,885 -22,918 -18,892 -20,923 -13,888 -19,926 -9,890 -17,901 -14,890 -17" fill="none" stroke="rgb(11,61,145)" id="needle_32"/>
    </g>
</svg>
